<svg xmlns="http://www.w3.org/2000/svg" width="256" height="256" xmlns:v="https://vecta.io/nano"><defs><linearGradient id="A" x1="765.188" y1="458.131" x2="739.366" y2="536.343" gradientUnits="userSpaceOnUse"><stop offset="0" stop-color="#fff" stop-opacity="0"/><stop offset="1" stop-color="#fff" stop-opacity=".275"/></linearGradient></defs><path d="M128 0c-11.395 27.937-18.313 46.237-31 73.344 7.778 8.245 17.338 17.812 32.844 28.656-16.67-6.86-28.034-13.729-36.531-20.875C77.076 115.005 51.622 163.246 0 256c40.563-23.418 72.008-37.862 101.313-43.375-1.254-5.404-1.924-11.278-1.875-17.375l.031-1.281c.644-25.994 14.169-45.982 30.188-44.625s28.488 23.537 27.844 49.531c-.121 4.896-.69 9.601-1.656 13.969C184.833 218.517 215.982 232.897 256 256l-21.687-40.094c-10.596-8.213-21.643-18.897-44.187-30.469 15.496 4.026 26.602 8.683 35.25 13.875C156.98 71.973 151.454 55.04 128 0z" fill="#1793d1"/><path d="M200.053 152.159c-55.487-75.311-68.348-136.01-71.606-150.501 29.598 68.269 29.396 69.107 71.606 150.501z" fill="#fff" fill-opacity=".166"/><path d="M765.098 436.435l-3.062 7.515-3.131 7.677-3.038 7.306-3.038 7.144-3.154 7.236-3.433 7.538-3.804 8.094-.603 1.229c5.755 6.096 12.841 13.15 24.283 21.152-12.34-5.078-20.765-10.158-27.067-15.447l-.951 1.948-1.438 2.853-2.528 5.126-.974 1.925c-5.507 11.053-12.34 24.283-21.129 40.728 24.096-13.576 50.085-33.162 97.296-16.305l-6.587-12.64-5.706-11.156-4.917-9.927-4.268-8.906-3.757-8.164-3.363-7.584-3.085-7.306-2.946-7.236-1.044-2.644-8.558-20.155z" transform="matrix(1.34737 0 0 1.34737 -902.40019 -586.944907)" fill="url(#A)"/></svg>