<svg xmlns="http://www.w3.org/2000/svg" width="482.268" height="531.538" viewBox="0 0 452.127 498.316" xmlns:v="https://vecta.io/nano"><g transform="matrix(-.204087 .361094 .806085 .48598 119.30437 -37.93898)"><path d="M767.299 387.327c11.124 7.966 31.778 11.3 44.732 15.545s18.149 9.359 22.129 13.373 5.944 7.145 4.718 9.527-5.544 3.994-14.001 4.812-15.91.121-23.024-1.726-13.807-4.866-21.706-8.603-17.327-8.051-25.811-14.184-17.623-13.9-23.142-24.134-5.782-21.344-5.371-30.883 1.511-17.554 2.716-23.749 2.715-10.674 4.771-13.67 4.652-4.527 7.719-4.527 5.704 1.831 7.625 5.499 3.048 9.244 3.286 16.76-.671 17.081.34 27.198 3.895 20.795 15.018 28.76z" fill="#394655"/><path d="M760.817 387.615c8.354 7.229 23.404 11.345 36.928 14.854s21.763 7.51 26.414 11.295 7.043 6.961 6.893 9.28-3.072 3.852-9.994 4.537-13.125-.18-19.189-2.158-12.013-5.066-19.623-8.648-16.945-7.618-24.989-13.215-15.823-12.654-20.902-21.246-6.013-17.801-5.992-25.919.935-15.149 1.866-20.67 2.017-9.597 3.383-12.305 3.035-4.069 5.02-4.014 3.577 1.847 4.614 5.275 1.447 8.544 1.474 15.153-.436 14.761.913 23.275 4.831 17.275 13.184 24.504z" fill="#e1d6b9"/></g><g transform="matrix(-.328793 .173616 .201433 .283388 -6.68392 61.06961)"><path d="M-626.547 402.353c2.228 10.863.345 21.826-3.867 31.425s-10.552 17.861-17.721 24.3-15.255 11.106-24.572 13.614-20.95 4.469-31.639 1.984-18.069-9.228-24.094-15.893-12.359-14.475-22.965-22.068-20.865-15.598-25.161-23.377-7.008-15.669-7.815-23.391.359-14.559 3.123-20.545 7.126-11.121 12.785-15.409 12.618-7.736 20.642-10.243 17.113-4.076 27.139-4.415 20.066.594 29.762 2.875 19.055 5.92 27.477 11.023 15.893 11.692 21.605 19.629 13.074 19.628 15.301 30.491z" fill="#96d6ff"/><g fill="#394655"><path d="M-784.214 457.339c-.561.066-1.081.181-1.556.336-.633.207-1.184.485-1.635.827s-.802.747-1.028 1.219-.327 1.011-.274 1.62.253 1.234.58 1.849.99 1.252 1.835 1.842 1.357 1.205 1.825 1.729 1.135.854 2.024.927c.103.008.123-.305.034-.329-.781-.203-1.258-.72-1.719-1.111-.425-.466-.872-1.014-1.621-1.546s-1.473-1.093-1.777-1.639-.497-1.1-.555-1.642.024-1.022.219-1.443.502-.784.902-1.086a4.77 4.77 0 0 1 1.458-.724 6.76 6.76 0 0 1 .907-.215c.32-.053.658-.089 1.012-.102.708-.026 1.416.039 2.1.199s1.345.415 1.938.773 1.119.82 1.521 1.377.921 1.375 1.079 2.137a3.39 3.39 0 0 1-.133 1.834c-.038.107.498.294.628-.011.243-.57.234-1.241.103-1.874-.178-.857-.69-1.769-1.137-2.4s-1.031-1.153-1.689-1.553a7.14 7.14 0 0 0-2.143-.85c-.756-.17-1.54-.232-2.325-.191l-.575.048z" transform="matrix(13.851095 0 0 13.851095 10133.213 -6001.611)"/><path d="M-753.772 413.022c-.137-2.618 2.18-4.948 7.219-6.201 7.654-1.903 20.038 1.846 27.938 5.672 4.334 2.099 8.89 3.891 12.666 7.194 1.282 1.121 2.518 2.283 3.369 4.409-1.658.577-4.105-.921-5.873-2.13-6.968-4.765-14.695-8.09-22.677-9.126-6.716-.872-8.869-3.11-14.755-2.562-3.726.347-4.906 2.139-7.887 2.745z"/><path d="M-720.17 411.684c.285-2.325.87 3.904-.319 5.46-4.46 5.84-8.203 12.321-12.421 18.365-1.374 1.968-3.295.041-2.427-2.099.881-2.174 2.061-3.999 3.349-5.815 1.208-1.701 2.814-3.058 3.888-4.86 2.066-3.463 2.396-6.629 4.254-10.239.637-1.238 3.523.425 3.674-.809z"/></g></g><path d="M378.267 289.744c-6.429 52.923-17.782 104.316-57.898 139.411-50.609 44.274-128.725 45.153-194.533 3.145-19.031-12.149-34.186-45.896-36.613-67.719-5.075-45.616-1.229-71.537-5.611-113.633-3.488-33.506-20.458-61.233-18.85-101.128 1.079-26.77 7.638-57.919 27.961-74.468 26.625-21.68 57.711-34.095 92.967-33.24 50.209 1.217 104.355 4.67 146.467 36.863 30.057 22.977 47.286 60.925 50.324 99.872 3.12 40.006-.111 77.126-4.213 110.897z" fill="#394655"/><path d="M365.691 338.659c-10.741 48.671-40.328 94.035-92.788 111.993-48.744 16.686-97.939 7.798-145.356-23.83-18.048-12.038-31.816-45.369-33.795-66.047-4.166-43.525-1.768-70.448-5.733-110.619-3.31-33.532-19.342-57.831-18.842-97.601.327-25.991 6.206-56.807 26.107-72.929 25.212-20.426 54.085-33.393 87.29-33.226 52.614.264 111.936 4.084 153.823 41.823 38.296 34.503 43.752 95.257 41.976 142.689-1.465 39.121-5.296 74.281-12.682 107.748z" fill="#8dc9f0"/><g transform="matrix(.401388 -.137105 .137105 .401388 304.0302 -181.457955)"><path d="M-626.573 401.696c2.247 11.351.367 22.389-3.843 32.038s-10.55 17.905-17.719 24.344-15.255 11.111-24.572 13.611-20.95 4.472-31.645 1.828-18.092-9.812-24.148-17.251-12.443-16.567-23.097-25.359-20.952-17.788-25.301-26.873-7.115-18.361-7.98-27.522.247-17.364 2.962-24.584 7.032-13.455 12.661-18.537 12.567-9.011 20.592-11.489 17.135-3.505 27.209-2.667 20.181 3.472 29.952 7.653 19.214 9.909 27.712 16.897 16.035 15.24 21.796 24.416 13.174 22.145 15.421 33.495z" fill="#96d6ff"/><g fill="#394655"><path d="M-729.804 313.162c-7.804.204-15.02 1.477-21.594 3.628-8.766 2.867-16.376 7.295-22.585 12.949s-11.02 12.516-14.094 20.433-4.411 16.87-3.627 26.832 3.62 20.044 8.199 29.877 13.799 19.649 25.554 28.85 18.883 18.966 25.4 26.857c6.496 7.864 15.746 12.611 28.073 13.707 1.421.125 1.703-4.338.471-4.695-10.824-3.012-17.459-10.746-23.864-16.828-5.924-7.252-12.167-16.154-22.585-24.725s-20.489-17.343-24.751-26.201-6.989-17.908-7.846-26.841.229-16.925 2.877-23.968 6.862-13.142 12.367-18.104 12.287-8.793 20.143-11.219c3.928-1.212 8.14-2.069 12.584-2.524s9.137-.511 14.066-.111c9.858.81 19.73 3.377 29.281 7.451s18.786 9.669 27.079 16.486 15.637 14.858 21.258 23.809 12.861 21.592 15.071 32.66c1.815 9.089 1.039 17.996-1.815 26.044-.532 1.498 6.899 4.205 8.702-.028 3.361-7.902 3.245-17.238 1.408-26.282-2.485-12.23-9.618-25.915-15.848-35.834s-14.397-18.813-23.585-26.297-19.374-13.57-29.926-17.958-21.491-7.088-32.409-7.808c-2.73-.18-5.4-.226-8.001-.161zm-.469 69.751c1.807-2.764 6.313-3.63 13.246-1.617 10.531 3.058 22.434 14.978 28.948 24.047 3.573 4.975 7.642 9.783 9.648 15.624.681 1.983 1.276 3.978.689 6.704-2.406-.494-4.187-3.623-5.38-6.013-4.7-9.42-11.386-17.865-20.095-24.139-7.328-5.279-8.205-8.972-15.615-12.257-4.691-2.08-7.441-1.021-11.441-2.349z"/><path d="M-689.319 403.5c2.088-2.189-1.902 4.556-4.485 5.369-9.694 3.052-19.018 7.226-28.578 10.645-3.113 1.113-3.948-2.11-1.307-3.73 2.683-1.645 5.457-2.739 8.355-3.752 2.716-.949 5.644-1.285 8.277-2.424 5.061-2.187 7.833-5.206 12.758-7.68 1.689-.849 3.868 2.736 4.976 1.574z"/></g></g><g transform="matrix(.130588 -.42795 -.608698 -.110928 470.33914 686.40257)"><use href="#B" fill="#e1d6b9"/><path d="M411.914 568.549c-3.75-.027-8.087.54-12.762 1.287-5.343.854-11.107 1.921-17.01 2.326s-11.411.383-16.447.414-9.604.161-13.508.859-7.135 1.967-9.408 3.969-3.585 4.717-3.652 8.176 1.218 6.307 3.543 8.58 5.688 3.98 9.762 5.25 8.852 2.119 14.057 2.598 10.834.561 16.703.223 11.471-.787 16.605-1.35 9.793-1.224 13.707-2.344c1.489-.426 2.867-.929 4.127-1.52 2.545-1.193 2.05-6.172-.1-4.541-1.992 1.512-4.144 1.682-7.157 2.351-3.673.815-8.181.991-12.55 1.343s-8.779 1.784-13.313 2.077-8.868.328-12.932.07-7.857-.781-11.125-1.643-5.997-2.08-7.885-3.814-2.925-3.987-2.979-6.801.902-4.819 2.669-6.106 5.617-.585 8.692-.714 6.906-.545 10.788-.417 6.546-.481 11.048-1.214 9.152-2.343 13.887-3.721 9.225-2.343 13.009-2.554a27.98 27.98 0 0 1 1.389-.045c1.16-.007 2.25.044 3.25.236 1.153.222 2.315-2.861-.838-2.928l-1.57-.049z" fill="#394655"/></g><g transform="matrix(-.656101 0 0 .656101 479.73578 -47.20501)"><path d="M547.428 318.165c-.44 14.772-4.129 29.027-10.39 42.253s-15.092 25.427-25.805 35.997-23.304 19.508-37.118 26.09-28.851 10.803-44.502 11.862-30.441-1.158-43.818-6.168-25.341-12.808-35.301-22.804-17.916-22.19-23.266-35.908-8.091-28.959-7.642-44.981 4.044-31.294 10.142-45.079 14.696-26.082 25.17-36.257 22.822-18.23 36.462-23.661 28.572-8.243 44.229-8.025 30.561 3.427 44.11 8.942 25.74 13.337 35.926 22.915 18.362 20.913 23.877 33.533 8.366 26.521 7.925 41.293z" fill="#394655"/><path d="M539.722 314.79c.001 13.9-3.016 27.538-8.513 40.353s-13.48 24.805-23.377 35.253-21.705 19.341-34.785 25.879-27.426 10.712-42.377 11.767-29.091-1.113-41.859-5.931-24.169-12.287-33.666-21.791-17.09-21.043-22.232-33.955-7.833-27.196-7.523-42.136 3.59-29.108 9.23-41.858 13.637-24.082 23.396-33.471 21.278-16.838 34.004-21.942 26.661-7.868 41.285-7.943 28.559 2.532 41.261 7.244 24.167 11.534 33.816 20.036 17.479 18.689 22.901 30.212 8.439 24.383 8.44 38.283z" fill="#fff"/><circle cx="383.306" cy="309.062" r="30.81" fill="#394455"/><circle r="15.152" cy="294.919" cx="369.669" fill="#fff"/></g><g transform="matrix(-.498219 -.255998 -.255998 .498219 674.27144 95.40915)"><path d="M544.261 323.966c-5.954 12.338-15.2 24.223-25.898 35.919s-22.743 23.282-34.524 34.219-23.276 21.155-34.237 29.302-21.473 14.181-32.043 16.952-20.297 2.026-29.304-1.677-20.581-7.766-27.665-16.717-12.841-20.183-16.503-33.034-5.229-27.329-3.924-42.729 5.367-30.25 11.818-43.755 15.29-25.658 26.008-35.783 28.442-20.293 42.249-25.867 28.833-8.628 44.21-8.804 29.627 2.526 41.944 7.375 22.697 11.851 30.36 20.347 12.601 18.483 14.065 29.349-.599 22.565-6.553 34.902z" fill="#394655"/><path d="M538.18 322.659c-5.177 11.632-13.277 23.101-22.969 34.404s-20.939 22.465-32.344 32.775-22.908 19.719-33.859 27.134-21.396 12.82-31.595 15.287-19.302 1.763-27.568-1.63-19.134-6.951-25.391-15.162-11.244-18.534-14.304-30.375-4.19-25.202-2.686-39.426 5.508-27.948 11.68-40.438 14.508-23.741 24.548-33.139 26.99-19.062 39.836-24.293 26.784-8.158 41.001-8.459 27.343 2.038 38.643 6.331 20.77 10.545 27.741 18.169 11.438 16.613 12.813 26.512-.366 20.678-5.544 32.309z" fill="#fff"/><g transform="rotate(9.459)"><circle cx="441.874" cy="238.139" r="27.721" fill="#394455"/><circle r="13.633" cy="224.787" cx="434.414" fill="#fff"/></g></g><path d="M100.464 366.362l47.91-26.988 8.166 14.497-47.91 26.988z" fill="#b3b3b3"/><path d="M149.815 334.338l12.62 22.535 151.438-73.916 30.648-29.296-44.079 10.204z" fill="#aeece6"/><path d="M344.521 253.661l-44.079 10.204-150.628 70.472 1.176 2.1 149.625-70.953 38.947-8.948-26.351 25.19-151.864 73.206.886 1.584.3.309 151.34-73.867zm-190.144 84.844l148.359-69.375 27.422-7.969-21.797 15.703-149.297 71.25z" fill="#d3f5f1"/><path d="M137.013 331.241l1.275-7.649 8.924 1.593 22.309 38.244-2.868 7.33-8.605-4.462z" fill="#616161"/><path d="M145.99 326.472l-6.298-.829 22.705 38.615 6.641-.663-4.6-2.283-20.579-33.474z" fill="#7d7d7d"/><path d="M98.592 357.464l-2.154 11.601 9.281 14.916 10.938.663-.829-5.966-10.607-18.562z" fill="#b3b3b3"/><path d="M99.421 359.95c.166 1.492 9.115 15.91 9.115 15.91l-1.823 5.8-8.784-13.424z" fill="#616161"/><path d="M143.362 327.724l20.508 33.984 1.172.703.352-1.055-20.156-33.281z" fill="#b3b3b3"/><path d="M310.806 213.542l-6.368.083-3.711-.082c-1.184-.026-2.238.536-3.007 1.364s-1.147 1.975-1.326 3.227l-1.013 7.086-1.407 7.111c-.253 1.281.084 2.41.705 3.231s1.574 1.29 2.697 1.316l3.745.089 7.407-.173c1.421-.033 2.74-.585 3.708-1.433s1.54-2.001 1.656-3.259l.648-7.056.525-7.045c.094-1.254-.467-2.377-1.254-3.182s-1.857-1.284-3.005-1.277z" fill="#2e3436"/><path d="M309.643 215.687l-5.197.07-2.475-.101c-.94-.039-1.808.436-2.461 1.114s-1.034 1.618-1.212 2.643l-1.003 5.793-1.255 5.808c-.224 1.037.002 1.971.489 2.642s1.267 1.034 2.199 1.071l2.542.101 5.885-.128c1.114-.024 2.175-.472 2.973-1.164s1.309-1.635 1.439-2.665l.73-5.77.63-5.763c.113-1.026-.286-1.947-.892-2.606a3.18 3.18 0 0 0-2.395-1.045z" fill="#fff"/><path d="M280.664 207.534c.177 2.271 1.577 4.326 3.565 6.177s4.736 3.491 7.917 4.834 6.77 2.377 10.405 2.929 7.318.613 10.937.177 6.861-1.305 9.675-2.378 5.178-2.347 7.041-3.759 3.239-2.977 4.109-4.724 1.23-3.68.915-5.763-1.292-4.115-2.799-5.981-3.535-3.566-5.916-4.98-5.113-2.542-8.128-3.282-6.318-1.091-9.931-.972-7.219.694-10.642 1.645-6.65 2.283-9.339 3.911-4.899 3.503-6.189 5.619c-1.321 2.168-1.77 4.612-1.619 6.547z" fill="#394655"/><path d="M288.313 207.024c.31 1.804 1.366 3.489 2.987 4.999s3.805 2.847 6.287 3.914 5.249 1.856 8.071 2.271a32.07 32.07 0 0 0 8.532.107c2.831-.346 5.359-1.03 7.553-1.905s4.045-1.938 5.497-3.125 2.509-2.502 3.132-3.934.814-2.985.49-4.631-1.139-3.225-2.341-4.667-2.789-2.743-4.659-3.821-4.019-1.93-6.39-2.481-4.962-.802-7.767-.685-5.573.586-8.187 1.342-5.071 1.798-7.146 3.062-3.76 2.751-4.833 4.373-1.535 3.377-1.225 5.182z" fill="#e1d0cb"/><path d="M298.352 196.012c.452 1.293 1.436 2.441 2.797 3.41s3.093 1.761 4.973 2.368 3.899 1.031 5.875 1.257 3.909.252 5.72.052 3.34-.607 4.633-1.174 2.352-1.293 3.186-2.149 1.445-1.841 1.799-2.932.452-2.29.212-3.557-.801-2.482-1.649-3.579-1.983-2.077-3.355-2.872-2.981-1.404-4.767-1.766-3.752-.476-5.823-.291-4.054.651-5.846 1.33-3.394 1.569-4.691 2.602-2.289 2.209-2.844 3.453-.672 2.556-.22 3.849z" fill="#394655"/><g transform="matrix(-.18128 -.409063 -.532878 .314419 509.04629 325.00679)"><use href="#B" fill="#e1d6b9"/><path d="M411.914 568.549c-3.75-.027-8.087.54-12.762 1.287-5.343.854-11.107 1.921-17.01 2.326s-11.411.383-16.447.414-9.604.161-13.508.859-7.135 1.967-9.408 3.969-3.585 4.717-3.652 8.176 1.218 6.307 3.543 8.58 5.688 3.98 9.762 5.25 8.852 2.119 14.057 2.598 10.834.561 16.703.223 11.471-.787 16.605-1.35 9.793-1.224 13.707-2.344c1.489-.426 2.867-.929 4.127-1.52 2.545-1.193 2.05-6.172-.1-4.541-1.992 1.512-4.56 2.504-7.57 3.207-3.669.857-7.967 1.341-12.559 1.768s-9.475.76-14.379 1.057-9.565.335-13.852.084-8.199-.769-11.535-1.646-6.095-2.13-8.037-3.937-3.066-4.178-3.131-7.223.961-5.278 2.814-6.814 4.531-2.37 7.789-2.738 7.093-.272 11.322-.154 8.858.226 13.783-.117 9.88-1.417 14.582-2.443 9.14-1.972 12.924-2.184a27.98 27.98 0 0 1 1.389-.045c1.16-.007 2.25.044 3.25.236 1.153.222 2.315-2.861-.838-2.928l-1.57-.049z" fill="#394655"/></g><path d="M318.582 303.942c26.759-10.963 50.242-24.282 65.61-43.434 18.191 19.634 31.829 23.224 49.758 26.191 2.751 30.513-5.397 121.914-64.454 149.963-64.709-40.982-47.406-88.184-50.914-132.72z" fill="#1f8179"/><path d="M324.727 305.16c24.812-10.166 46.587-22.515 60.838-40.274 16.868 18.206 29.513 21.535 46.139 24.286 2.551 28.293-5.005 113.045-59.766 139.054-60.002-38.001-43.958-81.769-47.211-123.066z" fill="#30cabd"/><path d="M351.186 312.145l-5.649 4.233-3.348 6.333 3.903 8.754-2.367 20.238 38.524 28.082 38.525-43.692-2.367-19.279 3.903-10.335-3.348-4.977-5.649-1.944-9.195 9.073-21.87.07-21.869 8.79z" fill="#d3f5f1"/><path d="M352.897 314.911l-5.217 3.909-3.092 5.849 3.605 8.085-2.186 18.691 35.58 25.936 35.581-40.352-2.186-17.806 3.605-9.545-3.092-4.597-5.217-1.795-8.492 8.379-20.199.065-20.198 8.119z" fill="#aeece6"/><path d="M385.565 264.885l-1.745 2.097-.337.388-1.769 1.981 3.171 6.81c14.149 6.54 27.92 14.498 43.242 16.641 2.64 4.542 2.838 15.305 2.214 33.296 1.93-14.942 2.106-27.997 1.403-36.385l-.2-.569-3.058-.526-2.966-.558-.198-.042-2.725-.577c-.955-.216-1.902-.445-2.84-.69-.113-.029-.223-.065-.335-.095l-2.465-.692c-.196-.06-.39-.131-.586-.192l-2.206-.723c-.091-.032-.182-.07-.273-.103-.824-.295-1.645-.603-2.465-.937-.243-.099-.486-.216-.729-.319l-2.042-.897c-.059-.028-.117-.062-.176-.09a56.87 56.87 0 0 1-2.565-1.293c-.251-.135-.505-.293-.756-.434l-2.001-1.152c-.225-.138-.454-.297-.679-.439L400.347 278a68.48 68.48 0 0 1-2.829-2.053c-.029-.022-.059-.049-.088-.071-.924-.708-1.855-1.454-2.796-2.249-.97-.819-1.951-1.685-2.944-2.602a102.42 102.42 0 0 1-3.01-2.897c-1.026-1.028-2.062-2.107-3.115-3.243z" fill="#d3f5f1"/><path d="M385.565 264.885c-14.251 17.759-36.026 30.108-60.839 40.274 3.253 41.296-12.79 85.065 47.212 123.065l.022-.011-.535-.573c-40.48-29.892-45.464-82.283-41.277-119.352 12.46-4.334 55.407-31.628 55.407-31.628s.402-6.503.136-9.721c-.434-.454.313-1.58-.126-2.054z" fill="#27a49a"/><defs ><path id="B" d="M423.503 581.835c-.004 4.4-1.198 7.589-3.375 9.828s-5.332 3.552-9.146 4.443-8.282 1.395-13.057 1.838-9.852.791-14.95 1.099-9.945.347-14.402.086-8.524-.799-11.993-1.712-6.337-2.214-8.356-4.093-3.187-4.345-3.255-7.511.998-5.486 2.925-7.084 4.712-2.464 8.1-2.847 7.373-.283 11.77-.161 9.211.235 14.332-.122 10.272-1.473 15.16-2.541 9.504-2.051 13.438-2.271 7.178.323 9.398 2.046 3.414 4.599 3.41 9z"/></defs></svg>