<svg xmlns="http://www.w3.org/2000/svg" width="256" height="256" xmlns:v="https://vecta.io/nano"><defs><linearGradient id="A" x1="-344.15" x2="-395.85" y1="274.71" y2="425.4" gradientTransform="matrix(-.59146 0 0 .59146 210.02 142.23)" gradientUnits="userSpaceOnUse"><stop offset="0" stop-color="#fff"/><stop offset="1" stop-color="#fff" stop-opacity="0"/></linearGradient></defs><g transform="translate(-373.64 -318.34)"><g fill-rule="evenodd"><rect width="235.01" height="234.99" x="-619.15" y="328.85" fill="#ececeb" stroke="#bdbdbd" stroke-width="6" rx="35.488" transform="scale(-1 1)"/><path fill="url(#A)" d="M557.06 338.9H446.23c-29.34 0-52.96 23.8-52.96 53.38v108.13c.95 23.08 4.6 8.49 11.56-17.08 8.08-29.71 34.39-55.68 66.44-75.14 24.46-14.86 51.84-24.34 101.68-25.25 28.27-.51 25.77-36.68-15.89-44.04z"/></g><g stroke-width="6" fill="none"><path stroke="#bdbdbd" d="m385.069 374.34 107.14 112.14c6.96 3.2 13.28 2.51 19.29 0l107.14-115"/><path stroke="#cdcece" d="m457.926 488.63-60 62.85M549.35 487.2l62.86 64.28"/></g></g></svg>