<svg xmlns="http://www.w3.org/2000/svg" width="70" height="92" xmlns:v="https://vecta.io/nano"><g fill="#0093dd"><path d="M0 44.9h70V92H0z"/><path d="M4.74 25.469h15.009v19.485H4.74zm45.378.226h15.185v19.24H50.118z"/><path d="M35.625 0C13.156.162 4.75 20.998 4.75 25.563c6.147 0 12.812.344 14.219.344h.719c1.678-6.87 7.865-11.969 15.25-11.969 7.352 0 13.508 5.051 15.219 11.875h.969l14.125.094S60.201-.176 35.625 0z" fill-rule="evenodd"/></g><path d="M10.269 25.206C21.691 1.917 37.701 5.157 46.958 6.592c0 0-12.173-5.83-23.874-.082-11.475 5.637-12.815 18.695-12.815 18.695zM-.25 68.25s7.789-8.701 14.063-11c8.188-3 18.188-2.062 34.75-5.375 5.863-1.173 7.688-2.625 16.625-7.25.755-.391 5.375-.312 5.375-.312l-.375 6.25C60 61.25 36.75 67.219 34.813 67.125c19.667 2.638 30.166-7.557 34.438-8.187C59.313 80.063 24.063 79 24.063 79c20.438 5.563 37.063-2.75 37.063-2.75-9.312 15.406-43.687 13.313-43.687 13.313-3.594.313-6.5 2.625-6.5 2.625L-.125 92.5-.25 68.25z" fill-rule="evenodd" fill="#fff"/></svg>