<svg xmlns="http://www.w3.org/2000/svg" viewBox="0 0 135.467 135.467" height="512" width="512" fill-rule="evenodd" image-rendering="optimizeQuality" shape-rendering="geometricPrecision" xmlns:v="https://vecta.io/nano"><style><![CDATA[.K{fill:#100c0f}.L{fill:#f1e726}.M{fill:#8a016e}.N{fill:#f5eb23}]]></style><g transform="matrix(.761636 0 0 .761434 -16.691031 -24.853641)"><path d="M146.396 36.088l.432.021-.22.779-.925-.225-.007.397-.698-.218-.219-.923.187-.606.7.19.378-.277.584.31zm-2.77.948v.187c0 1.092.964 2.057 2.057 2.057h.748c.835 0 2.057-.969 2.057-1.683v-.935c0-1.185-1.191-2.056-2.43-2.056-1.146 0-2.43 1.284-2.43 2.43z" class="L"/><path d="M144.946 35.313l-.187.606.218.923.699.218.007-.397.925.225.22-.779-.432-.021.212-.551-.584-.31-.378.277z" class="K"/><path d="M94.83 41.523l-.376.674-1.278.065-.252-.402.401-.333-.217-.605.601-.521c.861.398.507-.326.977.145.413.413-.278.327.145.977zm-3.178 1.309v.561c0 .683.516 1.496 1.122 1.496h.935c.882 0 2.617-1.846 2.617-2.991v-.935c0-.45-.672-1.122-1.122-1.122h-.748c-1.285 0-2.804 1.763-2.804 2.991z" class="L"/><path d="M94.83 41.523c-.422-.65.269-.564-.145-.977-.47-.471-.116.253-.977-.145l-.601.521.217.605-.401.333.252.402 1.278-.065z" class="K"/><path d="M37.444 55.362l.402.006-.239.96-.57-.249-.488.321-.646-.307.184-.51-.277-.378.327-.629.51.184.361-.257.646.307zm-2.628 1.118c0 1.263 1.099 2.243 2.431 2.243h.187c1.123 0 2.243-1.12 2.243-2.243v-.187c0-1.007-1.007-2.243-2.057-2.243h-.748c-1.185 0-2.057 1.191-2.057 2.431z" class="N"/><path d="M36.648 54.76l-.51-.184-.327.629.277.378-.184.51.646.307.488-.321.57.249.238-.96-.402-.006.212-.551-.646-.307zm135.036 22.881l-.013.339h.214l-.027.561c.15.105.462.374.561.374.715 0 .068.057.583-.214l.534.391.652-.222-.841-1.222-1.112-.218z" class="K"/><path d="M115.957 85.459l1.582 7 .287-.082c2.189 0 4.958-.56 7.331-.708 4.198-.262 3.821.412 6.004-2.036 2.719-3.049 5.488-4.903 9.283-6.796 8.291-4.135 15.213-4.669 27.488-4.669l.038-.273-12.724-1.796-.028.199h-6.544c-6.582 0-12.76 1.458-18.016 2.924-5.01 1.397-11.981 5.603-14.702 6.237z" class="M"/><path d="M171.857 78.541l.027-.561h-.214l.013-.339.551-.212 1.112.218.841 1.222-.652.222-.534-.391c-.515.271.131.214-.583.214-.099 0-.41-.269-.561-.374zm-1.683 0c0 1.388 2.505 2.617 3.926 2.617 1.021 0 2.057-.435 2.057-1.496 0-1.622-2.102-2.617-3.739-2.617-1.04 0-2.244.506-2.244 1.496z" class="L"/><path d="M133.157 208.665h-.374c-.581 0-1.496-1.101-1.496-1.87v-.374c0-1.305 1.435-2.804 2.804-2.804 1.294 0 1.87 1.118 1.87 2.43 0 1.395-1.254 2.618-2.804 2.618zm-56.088-15.331h-1.122c-.73 0-1.683-.713-1.683-1.309v-.374c0-1.508 1.997-2.244 3.552-2.244.837 0 2.243.496 2.243 1.309v.561c0 .987-1.781 2.057-2.991 2.057zm92.545-17.761c-.805 0-1.683-1.389-1.683-2.244v-1.309c0-.786.958-2.43 1.683-2.43h.561c1.006 0 1.683 1.957 1.683 3.178v.374c0 .767-1.133 2.43-2.244 2.43zM30.89 163.982v-.561a1.69 1.69 0 0 1 1.683-1.683h.935c1.191 0 2.431 1.213 2.431 2.43 0 1.248-1.215 2.057-2.431 2.057-1.236 0-2.617-.99-2.617-2.244zm49.544 25.427c.08-.302 16.646-13.311 20.678-23.258 1.054-2.599 2.054-5.424 2.9-8.13 1.564-5.001 1.099-3.298 5.383-5.648 2.158-1.184 12.914-9.142 12.918-9.143 1.102 4.73 3.373 2.288.173 7.838a95.94 95.94 0 0 1-4.428 6.977c-3.13 4.51-6.371 8.976-10.016 12.98-4.067 4.467-21.172 17.849-27.608 18.384zm113.671-66.371c0-.625.69-1.496 1.309-1.496h.935c1.268 0 2.617 1.606 2.617 2.804v.187a1.9 1.9 0 0 1-1.87 1.87h-.374c-1.367 0-2.617-1.816-2.617-3.365zm-53.283-10.283c10.853 5.743 28.979 32.776 28.979 50.666l.044 1.873-.231 3.175c-.581-.426-4.873-20.214-17.644-28.722-1.778-1.185-6.321-2.419-7.108-4.484-1.042-2.732-1.581-5.837-2.797-8.794-1.132-2.751-2.398-5.402-3.856-7.742-1.995-3.204-1.275-3.914 2.613-5.972zm-112.55-1.683c2.547 0 14.329 3.96 17.189 4.872 5.619 1.792 11.553 3.205 17.916 4.333 2.958.525 6.508 1.179 9.482 1.549 3.938.49 4.083 2.246 6.275 4.756 2.662 3.047 8.351 8.383 11.957 10.291-2.235 3.338-2.571 4.805-6.868 3.512-3.302-.994-6.034-1.845-9.124-3.038-5.802-2.239-11.468-4.595-16.853-7.264-5.589-2.77-10.276-5.534-15.346-8.772-2.323-1.484-13.148-9.282-14.628-9.677zm-5.422-.935v-.748a1.69 1.69 0 0 1 1.683-1.683h.561c1.056 0 2.244 1.377 2.244 2.43v1.309c0 .45-.672 1.122-1.122 1.122h-.935c-1.146 0-2.43-1.284-2.43-2.43zm147.324-31.596c0-.99 1.204-1.496 2.244-1.496 1.637 0 3.739.995 3.739 2.617 0 1.061-1.036 1.496-2.057 1.496-1.421 0-3.926-1.23-3.926-2.617zm-54.218 6.918c2.721-.634 9.692-4.84 14.702-6.237 5.256-1.466 11.433-2.924 18.016-2.924h6.544l.028-.199 12.724 1.796-.038.273c-12.274 0-19.197.534-27.488 4.669-3.795 1.893-6.564 3.747-9.283 6.796-2.183 2.448-1.806 1.773-6.004 2.036-2.373.148-5.141.708-7.331.708l-.287.082zM34.815 56.48c0-1.239.871-2.431 2.057-2.431h.748c1.05 0 2.057 1.236 2.057 2.243v.187c0 1.123-1.12 2.243-2.243 2.243h-.187c-1.332 0-2.431-.98-2.431-2.243zm53.724 17.683l.495 5.126c0 5.577 2.019 8.899 2.287 11.86.132 1.462-2.783 8.418-2.847 11.323-1.624-.378-9.909-7.74-9.909-8.787v-3.178c0-8.243 2.669-18.419 4.897-24.643 1.051-2.935 7.732-19.878 9.567-20.059zm3.112-31.331c0-1.229 1.519-2.991 2.804-2.991h.748c.45 0 1.122.672 1.122 1.122v.935c0 1.146-1.735 2.991-2.617 2.991h-.935c-.606 0-1.122-.812-1.122-1.496zm23.37 41.879v3.926c0 1.064 1.617 3.843 2.042 4.55l11.606-1.185h2.057c13.465 0 27.48 4.906 36.388 9.604 6.445 3.399 23.161 14.212 26.617 19.375-1.077-.287-13.058-7.454-16.628-8.985-5.587-2.395-12.996-4.85-20.951-4.85-11.767 0-14.115 3.969-20.752 8.413 5.97 8.915 10.844 20.475 10.844 35.335v6.544c0 8.165-1.391 19.161-2.934 25.858-.942 4.088-6.403 19.32-9.261 19.41l2.982-18.48-.321-.052v-6.544c0-15.992-11.556-25.311-14.022-35.896-4.083 2.734-6.925 6.248-12.178 9.322-4.564 2.671-9.679 4.838-15.13 6.557-10.049 3.17-23.479 6.93-36.444 6.93l-1.131.152-21.117-1.274v-.374c11.465-2.671 22.98-3.613 32.47-8.474 4.59-2.351 22.673-13.28 23.057-17.887-3.424-.797-12.556-10.233-14.896-13.147-4.182-5.209-7.762-11.076-11.023-17.208-6.454-12.135-12.617-25.361-19.306-37.156-1.63-2.874-3.546-5.996-5.623-8.416-4.643-5.411 3.317.135 4.817 1.184 5.196 3.633 10.325 8.976 14.546 13.684 4.326 4.824 23.542 27.119 28.12 28.342 2.06-24.761 25.734-44.064 41.84-55.566l7.11-5.042c1.049-.731 6.956-5.824 6.304-2.893-.487 2.19-8.716 11.924-10.512 14.016-5.143 5.993-18.567 20.374-18.567 30.229zm28.605-47.675c0-1.146 1.284-2.43 2.43-2.43 1.239 0 2.43.871 2.43 2.057v.935c0 .714-1.222 1.683-2.057 1.683h-.748c-1.092 0-2.057-.964-2.057-2.056zM92.212 89.759c-1.39-1.018-2.43-8.651-2.43-11.591V75.55c0-9.362 2.216-17.694 3.532-25.82.539-3.329.046-3.264 2.203-5.088 1.05-.888 2.673-3.369 1.248-5.042-1.999-2.349-8.258 1.251-4.927 6.224-6.912 11.236-15.051 33.816-13.835 47.301-.258-.093-15.663-17.161-17.426-19.031-6.778-7.19-10.943-11.618-20.153-16.491.999-4.286-3.786-5.91-5.766-3.321-2.703 3.535.558 5.328 4.457 5.003l.905-.492 33.779 62.169c-7.516.018-22.603-4.134-32.429-7.283l-7.758-2.338c-1.429-.423-2.788-.478-4.162-.886-2.113-.627-1.008-1.019-2.426-2.626-2.03-2.299-5.816-.86-4.995 2.704.659 2.859 5.18 4.428 5.869 1.848 1.267.338 22.62 14.453 27.064 16.872 4.672 2.543 10.16 4.779 15.202 6.859 4.478 1.847 12.764 3.858 16.439 5.622-.576 1.593-11.649 8.317-13.892 9.665-5.69 3.419-9.439 5.222-16.784 6.96-2.035.481-19.194 3.807-19.515 3.747-.416-.078-7.94-3.729-6.348 2.453.886 3.438 6.808 3.313 6.813-.465l17.008 1.011h6.17c8.859 0 16.168-1.591 23.283-3.453 3.566-.933 19.64-6.387 20.466-6.456-2.248 9.647-6.5 17.589-12.568 23.515-3.216 3.142-6.136 5.471-9.57 8.38-3.804 3.222-2.723.491-6.442 2.152-3.179 1.42-2.359 4.84.162 4.84h1.683c4.489 0 2.167-3.131 5.97-4.84 2.518-1.131 5.759-2.897 8.123-4.25 5.296-3.031 9.288-5.76 13.637-9.733 4.163-3.804 7.425-8.061 10.784-12.586 2.675-3.604 6.945-11.66 9.161-14.209.572 2.457 5.85 10.771 7.335 14.165 2.081 4.756 3.883 10.863 3.883 17.618v3.739c0 4.076-1.726 17.283-3.443 19.179s-4.07 6.339.64 6.415c4.101.066 4.531-5.913 2.242-6.524.208-.779 4.03-6.825 4.906-8.742 1.446-3.163 2.623-6.492 3.493-10.155 1.458-6.139 3.005-17.165 3.005-24.478l.094-10.668-1.402-11.393c8.702 2.027 16.772 12.996 19.983 20.961.989 2.453 1.813 5.086 2.641 7.672 1.381 4.308-1.862 3.391-.788 8.025.821 3.546 4.501 2.73 5.173-.714.847-4.344-2.254-3.118-2.172-7.872.249-14.467-4.201-22.441-9.664-31.28-2.615-4.231-5.504-8.233-8.645-11.921-2.993-3.945-7.046-7.554-10.455-10.111 1.319-1.801 5.934-4.3 12.9-4.3h4.113c6.237 0 14.677 2.941 19.171 4.947 2.888 1.289 15.033 8.381 15.604 8.514-.542 6.515 5.749 7.348 6.342 3.667.387-2.402-1.178-4.01-2.792-4.412-4.104-1.022-1.894.241-4.835-2.457-5.113-4.689-10.635-8.925-16.645-12.707-10.476-6.592-27.334-14.192-44.327-14.192.837-3.133 9.614-7.987 13.051-9.385 5.077-2.064 12.077-3.329 19.293-3.329l.376-.045 5.42.232c.54 2.021 5.376 4.243 7.401 2.319 2.399-2.279-1.846-5.24-4.911-4.894-2.728.308-1.337 1.499-4.04 1.002-1.744-.321-2.824-.671-4.751-.914-3.21-.405-6.604-.878-10.339-.878h-2.804c-13.285 0-24.935 4.548-33.653 9.161 0-10.135 13.477-24.443 18.782-30.575 1.462-1.69 10.383-13.623 10.873-13.806 4.908-1.836 4.738-5.662 1.262-6.408-2.151-.462-3.543.579-4.049 1.967-1.108 3.042 1.429 1.972-1.571 3.989-9.544 6.415-19.684 13.905-28.168 21.397-6.107 5.394-19.052 19.869-21.059 28.485z" class="K"/><path d="M93.029 45.805c-1.835.181-8.516 17.124-9.567 20.059-2.228 6.224-4.897 16.4-4.897 24.643v3.178c0 1.047 8.285 8.409 9.909 8.787.065-2.905 2.979-9.861 2.847-11.323-.267-2.961-2.287-6.283-2.287-11.86l-.495-5.126z" class="M"/><path d="M23.785 108.642c0 .273.23.274.364.37l-.154.538.548.417.387-.23.538.401c.105-.151.374-.462.374-.561a7.6 7.6 0 0 0-.447-1.049c-.295-.447-.627-.155-1.236-.447-.105.15-.374.462-.374.561z" class="K"/><path d="M23.995 109.549l.154-.538c-.133-.096-.364-.097-.364-.37 0-.099.269-.41.374-.561.609.292.941 0 1.236.447a7.6 7.6 0 0 1 .447 1.049c0 .099-.269.41-.374.561l-.538-.401-.387.23zm-1.144.588c0 1.147 1.284 2.43 2.43 2.43h.935c.45 0 1.122-.672 1.122-1.122v-1.309c0-1.053-1.187-2.43-2.244-2.43h-.561a1.69 1.69 0 0 0-1.683 1.683z" class="N"/><path d="M195.017 122.656l.42.014-.202.726.553.388c.621-.298 2.193.476.74-1.635l-1.278-.227z" class="K"/><path d="M195.788 123.785l-.553-.388.202-.726-.42-.014.233-.733 1.278.227c1.453 2.111-.119 1.337-.74 1.635zm-1.683-.748c0 1.549 1.25 3.365 2.617 3.365h.374a1.9 1.9 0 0 0 1.87-1.87v-.187c0-1.199-1.349-2.804-2.617-2.804h-.935c-.618 0-1.309.871-1.309 1.496z" class="L"/><path d="M140.822 112.755c-3.888 2.057-4.608 2.768-2.613 5.972 1.458 2.341 2.724 4.991 3.856 7.742 1.217 2.957 1.755 6.062 2.797 8.794.787 2.064 5.33 3.299 7.108 4.484 12.771 8.509 17.062 28.296 17.644 28.722l.231-3.175-.044-1.873c0-17.89-18.125-44.923-28.979-50.666zm-95.36 3.189c-2.86-.912-14.642-4.872-17.189-4.872v.561c1.48.395 12.304 8.193 14.628 9.677 5.07 3.238 9.757 6.002 15.346 8.772 5.385 2.669 11.052 5.025 16.853 7.264 3.09 1.192 5.822 2.044 9.124 3.038 4.297 1.293 4.632-.173 6.868-3.512-3.606-1.908-9.294-7.244-11.957-10.291-2.192-2.509-2.337-4.265-6.275-4.756-2.974-.37-6.523-1.024-9.482-1.549-6.362-1.128-12.297-2.54-17.915-4.333z" class="M"/><path d="M31.76 162.82l.461.048-.21.74c.22.058.485.192.559.148l.96.066.551-.409-.842-1.366-.106.159-.932-.092z" class="K"/><path d="M115.022 84.711c0-9.855 13.424-24.236 18.568-30.229 1.796-2.092 10.025-11.826 10.512-14.016.651-2.931-5.256 2.162-6.304 2.893l-7.11 5.043c-16.105 11.502-39.779 30.805-41.84 55.566-4.579-1.223-23.795-23.517-28.12-28.342-4.221-4.708-9.351-10.052-14.546-13.684-1.499-1.048-9.46-6.594-4.817-1.184 2.077 2.42 3.993 5.542 5.623 8.416 6.689 11.795 12.852 25.021 19.306 37.156 3.261 6.132 6.841 11.999 11.023 17.208 2.34 2.914 11.473 12.35 14.896 13.148-.383 4.608-18.467 15.537-23.057 17.887-9.49 4.861-21.005 5.803-32.47 8.474v.374l21.117 1.274 1.131-.152c12.965 0 26.395-3.761 36.444-6.93 5.451-1.719 10.566-3.886 15.13-6.557 5.253-3.074 8.096-6.588 12.179-9.322 2.466 10.585 14.022 19.905 14.022 35.896v6.544l.321.052-2.982 18.48c2.858-.09 8.319-15.321 9.261-19.41 1.543-6.697 2.934-17.693 2.934-25.858v-6.544c0-14.86-4.874-26.42-10.844-35.335 6.637-4.445 8.986-8.413 20.752-8.413 7.954 0 15.364 2.454 20.951 4.85 3.57 1.531 15.552 8.698 16.628 8.985-3.457-5.162-20.172-15.975-26.617-19.375-8.908-4.698-22.923-9.604-36.388-9.604h-2.057l-11.606 1.185c-.425-.707-2.042-3.486-2.042-4.55z" fill="#000069"/><path d="M32.57 163.755c-.073.044-.339-.089-.559-.148l.21-.74-.462-.048.441-.706.932.092.106-.159.842 1.366-.551.409zm-1.68.226c0 1.254 1.381 2.244 2.617 2.244 1.216 0 2.431-.809 2.431-2.057 0-1.218-1.24-2.43-2.431-2.43h-.935a1.69 1.69 0 0 0-1.683 1.683z" class="N"/><path d="M168.866 170.712l-.01.94.384.742c.651-.301 1.122.338 1.122-.561v-.935c0-.675-.379-.544-.748-.374l-.094-.467z" class="K"/><path d="M170.362 171.834c0 .899-.47.26-1.122.561l-.384-.742.01-.94.654-.654.094.467c.368-.171.748-.302.748.374zm-.748 3.739c1.111 0 2.244-1.663 2.244-2.43v-.374c0-1.222-.677-3.178-1.683-3.178h-.561c-.725 0-1.683 1.644-1.683 2.43v1.309c0 .855.877 2.244 1.683 2.244z" class="L"/><path d="M80.434 189.408c6.436-.536 23.541-13.918 27.608-18.384 3.645-4.004 6.886-8.47 10.016-12.98a95.94 95.94 0 0 0 4.428-6.977c3.2-5.55.929-3.108-.173-7.838-.004.001-10.76 7.96-12.918 9.143-4.284 2.349-3.819.647-5.383 5.648-.846 2.706-1.847 5.531-2.9 8.13-4.032 9.947-20.597 22.956-20.678 23.258z" class="M"/><path d="M76.321 191.278c.715 0 .068.058.561-.187.004.003.349.187.374.187.317 0 .699-.249.935-.374a4.77 4.77 0 0 1-.187-.374c0-.422-.072.087.146-.308l-.52-.439c-.6.288-1.238.053-1.542.335-.091.084-.255 1.16.233 1.16z" class="K"/><path d="M76.321 191.278c-.488 0-.324-1.076-.233-1.16.304-.283.943-.048 1.542-.335l.52.439c-.218.395-.146-.113-.146.308a4.7 4.7 0 0 0 .187.374c-.236.125-.618.374-.935.374-.025 0-.37-.184-.374-.187-.493.244.154.187-.561.187zm.748 2.057c1.21 0 2.991-1.07 2.991-2.057v-.561c0-.813-1.406-1.309-2.243-1.309-1.555 0-3.552.735-3.552 2.244v.374c0 .595.953 1.309 1.683 1.309z" class="L"/><path d="M132.469 204.959c-.057-.03.127.315.127.34 0 .715.058.068-.187.561.151.105.462.374.561.374.273 0 .274-.231.37-.364l.538.154.401-.538c-.098-.463.068-1.122-.374-1.059l-1.108-.054z" class="K"/><path d="M132.797 204.373l1.108.054c.442-.062.276.596.374 1.059l-.401.538-.538-.154c-.096.133-.097.364-.37.364-.099 0-.41-.269-.561-.374.244-.493.187.154.187-.561 0-.025-.184-.37-.127-.34zm.36 4.292c1.551 0 2.804-1.222 2.804-2.618 0-1.312-.575-2.43-1.87-2.43-1.369 0-2.804 1.5-2.804 2.804v.374c0 .769.915 1.87 1.496 1.87z" class="L"/><g stroke-width=".7"><g fill="#ef9a48"><path d="M78.989 108.475l3.267 9.646c1.705 9.157 4.519 14.746 8.09 17.892 3.623 5.964 7.735 11.356 12.602 15.869 5.105 6.212 11.668 5.825 18.203-1.245 8.443-9.134 12.62-24.957 14.469-42.473 2.144-20.32-19.658-32.544-28.937-14.78-5.521 10.569-7.169 8.811-14.936 1.4-7.623-7.274-17.797-2.902-12.757 13.691zm5.364 5.102c8.92.373 15.196 1.755 16.247 5.131-6.618 3.372-11.804.814-16.247-5.131zm21.132 26.45c1.117.634 1.903.652 2.717 0 1.511-1.21 2.631-1.107 5.046-1.98 3.829-1.383 5.522-4.981 8.284-7.471-5.34 7.2-9.863 20.142-18.08 12.022-2.061-2.037-2.113-2.66-8.055-7.584l-.762-.629c2.737 1.635 5.163 3.58 8.21 4.904.872.356 1.402.035 2.64.738zm3.377-22.088c-1.517-6.167 4.182-8.726 15.295-8.579-4.571 4.116-9.375 7.679-15.294 8.579z" stroke="#000"/><path d="M100.709 118.532c-1.052-3.376-7.328-4.757-16.247-5.131 4.443 5.945 9.629 8.502 16.247 5.131zm23.557-9.347c-11.112-.147-16.811 2.412-15.294 8.579 5.92-.9 10.723-4.463 15.295-8.579zm-35.974-2.183c2.799 2.42 5.597 4.344 8.396 4.897 5.692 1.834 6.063 5.78 5.675 10.028v10.028c-.346 3.758 1.995 4.316 3.382 2.681.751-.885 2.307-1.941 3.63-2.083 2.034-.218 3.65-.127 2.55-3.514m-5.986.583l-.078-13.682m1.477-3.265c1.789-3.673 7.026-5.876 14.537-6.919m-23.555 8.707c-4.892-2.68-10.023-3.768-15.392-3.265m5.286-7.463c10.673 9.928 15.458 8.369 19.512-1.322 5.322-12.722 15.496-13.578 24.021-.777m-10.106 28.763c-5.34 7.2-9.863 20.142-18.08 12.022-2.146-2.12-2.114-2.708-8.817-8.213 2.737 1.635 5.163 3.58 8.21 4.904.872.356 1.402.035 2.64.738 1.117.634 1.903.652 2.717 0 1.511-1.21 2.631-1.107 5.046-1.98 3.829-1.383 5.522-4.981 8.284-7.471zm-26.136 4.438c2.439 1.833 4.864 3.689 7.41 5.362.84.561 1.841 1.1 3.067 1.503 1.276.442 2.311.692 3.416-.3.7-.628 1.184-1.146 2.329-1.592 4.72-1.353 6.609-6.275 9.914-9.412m-42.543-22.101c-5.039-16.593 5.134-20.965 12.757-13.691 7.766 7.41 9.415 9.168 14.936-1.4 9.28-17.764 31.082-5.54 28.938 14.78-1.849 17.516-6.026 33.339-14.469 42.473-6.535 7.07-13.097 7.457-18.203 1.245-4.867-4.513-8.979-9.905-12.602-15.869-3.571-3.146-6.385-8.734-8.09-17.892zm27.151 30.108c.109-.515-.078-4.541 1.634-.103m1.642 15.407c-2.801-2.532 2.269-4.26 1.517-.45m17.218-30.027c.155 7.727-2.541 16.906-6.534 22.559m-5.756-18.358c6.638-3.578 9.749-2.593 9.335 2.956M86.8 127.902c1.66 3.887 6.56 4.431 10.19-1.4M81.14 107.39c-.907-14.433 3.542-16.774 11.894-5.131 4.398 6.131 8.353 7.24 12.438-1.71 7.268-15.925 18.877-14.805 26.41-3.527m-25.322 13.089c6.949-12.412 13.185-17.206 18.269-9.717" stroke="#1f1a17"/></g><g stroke="#000"><path d="M113.357 137.872c-2.416.872-3.535.77-5.047 1.98-.814.652-1.6.634-2.717 0-1.238-.703-1.768-.382-2.639-.738-3.047-1.324-5.474-3.27-8.211-4.905l.762.629.733.552 6.677 4.811c.84.561 1.841 1.1 3.067 1.503 1.276.443 2.311.692 3.416-.3.7-.628 1.184-1.146 2.329-1.591 4.185-1.199 6.144-5.204 8.838-8.283.345-.394.701-.773 1.076-1.129-2.761 2.49-4.455 6.088-8.284 7.471z" fill="#fff"/><path d="M108.971 117.764c5.836-.887 10.587-4.362 15.1-8.404-7.725-.093-12.818 1.129-14.67 3.973-.707 1.195-.864 2.666-.43 4.432zm-8.405.841c-1.136-3.27-7.268-4.633-15.965-5.017 4.38 5.769 9.483 8.245 15.965 5.017z" fill="#0a0b0c"/></g></g></g></svg>