<svg xmlns="http://www.w3.org/2000/svg" width="194.7" height="221.156" viewBox="0 0 51.514 58.514" xmlns:v="https://vecta.io/nano"><path d="M.742.716h5.811v27.408H.742zm28.717 27.408H10.078v-4.077l6.96-7.036 4.039-4.39c.632-.816 1.087-1.571 1.365-2.266a5.77 5.77 0 0 0 .417-2.162c0-1.112-.306-1.941-.92-2.485s-1.432-.815-2.456-.815a7.06 7.06 0 0 0-3.129.74c-1.011.493-2.067 1.195-3.167 2.105l-3.186-3.774c1.365-1.163 2.497-1.985 3.394-2.465s1.877-.85 2.94-1.11S18.586 0 19.901 0c1.732 0 3.262.316 4.589.948s2.358 1.517 3.091 2.655 1.1 2.44 1.1 3.907c0 1.278-.225 2.475-.673 3.594s-1.144 2.266-2.086 3.442-2.601 2.851-4.978 5.025l-3.565 3.357v.265H29.46zm8.932-14.51h1.912c1.787 0 3.124-.353 4.012-1.059s1.331-1.734 1.331-3.084c0-1.362-.372-2.368-1.115-3.018s-1.91-.975-3.496-.975h-2.643zm13.123-4.35c0 2.95-.922 5.206-2.765 6.768s-4.465 2.343-7.864 2.343h-2.493v9.748H32.58V.716h8.755c3.324 0 5.852.716 7.583 2.147s2.596 3.565 2.596 6.402" fill="#8c8c8c"/><path d="M11.083 52.972c0-3.061-2.481-5.542-5.542-5.542S0 49.911 0 52.972s2.481 5.542 5.542 5.542 5.542-2.481 5.542-5.542" fill="#ffc434"/><path d="M11.083 39.797c0-3.061-2.481-5.542-5.542-5.542S0 36.736 0 39.797s2.481 5.542 5.542 5.542 5.542-2.481 5.542-5.542" fill="#60ab60"/><use href="#B" fill="#e15647"/><g fill="#ffc434"><use href="#B" y="-13.175"/><use href="#B" x="13.174"/></g><g fill="#60ab60"><use href="#B" x="13.174" y="-13.175"/><use href="#B" x="26.349"/></g><use href="#B" x="26.349" y="-13.175" fill="#e15647"/><defs ><path id="B" d="M24.258 52.972c0-3.061-2.481-5.542-5.542-5.542s-5.542 2.481-5.542 5.542 2.481 5.542 5.542 5.542 5.542-2.481 5.542-5.542"/></defs></svg>