<svg xmlns="http://www.w3.org/2000/svg" width="167" height="202" viewBox="-0.75 -1.7 166.8 202.35" xmlns:v="https://vecta.io/nano"><style><![CDATA[.B{fill:#0d131a}.C{fill:#5dc1cf}.D{fill:#50a8b4}]]></style><path d="M31.8 66.25q3.05-3.65 6.05-2.25 3.15 1.45 4.85 7.5 1.6 5.75.65 10.9-.35 2.1-.65 18.7-.35 29.05-.7 36.1-1.1 21.6-4.6 29-6.1 12.75-18.5 12.75l-9.85-.6q-6.75-1.25-8.5-5-1.3-2.8.55-7.7 1.9-4.95 6.4-10.3 6.25-7.45 11.05-27 2.75-11.15 6.6-35 1.9-11.65 3.35-17.8 1.7-7.35 3.3-9.3" class="B"/><path d="M37.1 65.7q2.35 1.1 3.8 6.4 1.45 5.35.65 9.95-.5 2.9-.7 19-.3 23.3-1.1 35.2-1.35 20.65-4.85 27.95-2.95 6.15-6.1 8.95-3.85 3.4-9.5 3.4l-8.6-.6q-6-1.1-7.4-4.15-2.15-4.65 5.8-14 6.5-7.7 11.5-28.15 2.9-11.75 6.85-36 2.05-12.5 3-17.05 1.55-7.65 2.8-9.2 2.1-2.5 3.85-1.7" class="C"/><path d="M27.45 93.65q2.05-12.5 3-17.05 1.55-7.65 2.8-9.2 2.1-2.5 3.85-1.7 2.35 1.1 3.8 6.4 1.45 5.35.65 9.95-.5 2.9-.7 19l-.5 22.65q-.45 13.85-1.55 23l-7.25-23.3q-4.35-13.65-6.75-14l2.65-15.75" class="D"/><path d="M163.45 99.8q2.6 6.6 1.85 16.1-.95 12.25-7.05 24.2-6.7 13.15-17.65 21.7-14.7 11.6-25.9 15.05-5.8 1.8-14.45 1.6l-2.65-.05 3.75-12.75.65-.05q8.95-.5 14.95-4.15 6-3.6 11.05-11.55 2.2-3.45 3.95-10.25 1.35-5.25 2.75-14 3-19.05 7.25-26.85 4.5-8.15 12.1-7.25 6.4.75 9.4 8.25" class="B"/><path fill="#595757" d="M154.65 94.65q6.05 1.35 7.85 10.45 2.55 12.25-4.1 28.8-7 17.35-19.35 26.45-16.05 11.8-25.95 14.95-4.75 1.5-12.8 1.25h-.2l2.7-9.15q9.05-.65 15.35-4.5 6.3-3.85 11.45-11.95 2.25-3.55 4.15-10.7l3.1-14.3q2.7-13.85 4.2-18.75 2.8-9.15 6.85-11.75 1.25-.8 3.2-1l3.55.2"/><path fill="#3e3a39" d="M148.85 95q2.7-1.1 5.8-.35 6.05 1.35 7.85 10.45 2.55 12.25-4.1 28.8-7 17.35-19.35 26.45-16.05 11.8-25.95 14.95-4.75 1.5-12.8 1.25h-.2q.1-.3 4.55-.65 5.1-.4 6.9-1 14.25-4.65 25.95-16.9 10.45-11 16.25-25 5.55-13.5 4.45-24-1.15-11.15-9.35-14"/><path d="M44.45 160.05q4.35-6.55 10.65-6.95 4.95-.4 9.2 3.4 3.2 2.8 5.15 7.3 2 4.45 2.3 9.55.55 8.6-3.35 14.55-3.9 5.95-10.35 6.3-8.5.55-13.2-5.4-3.95-5.05-4.35-13.3-.4-8.85 3.95-15.45" class="B"/><path d="M67.8 164.6q1.8 4.1 2.1 8.85.5 7.9-2.55 13-3.1 5.2-8.7 5.55-2.95.2-5.7-.6-2.7-.8-4.55-2.4-5-4.45-5.4-13.8-.35-8.15 3.2-14.05 3.55-5.85 9.05-6.2 4.15-.3 7.85 2.95 2.9 2.55 4.7 6.7" class="C"/><path d="M63.1 157.9q2.9 2.55 4.7 6.7 1.8 4.1 2.1 8.85.4 6.55-1.7 11.3-2.15 4.75-6.2 6.45-1.15-6.8-7.85-11.7-5.55-4.1-11.15-4.75-.25-8 3.3-13.75 3.5-5.7 8.95-6.05 4.15-.3 7.85 2.95" class="D"/><path d="M70.3 192.75q-5.25-5.2-5.25-14.45 0-10.05 4.2-16.05 4-5.75 10.7-6.15 5.15-.3 9.5 3.45 3.3 2.8 5.35 7.3 2.05 4.45 2.35 9.55.55 8.65-3.35 14.55-3.95 5.9-10.6 6.3-7.9.5-12.9-4.5" class="B"/><path d="M73 192.05q-5.1-4.4-5.6-13.8-.35-8.2 3.3-14.05 3.65-5.85 9.35-6.2 4.3-.3 8.15 2.95 3 2.55 4.9 6.7 1.85 4.15 2.15 8.85.5 7.9-2.65 13-3.25 5.2-9 5.55l-5.9-.6q-2.85-.8-4.7-2.4" class="C"/><path d="M78.5 182q-5.8-3.5-11.1-4.2-.25-8.05 3.4-13.75 3.65-5.7 9.25-6.05 4.3-.3 8.15 2.95 3 2.55 4.9 6.7 1.85 4.15 2.15 8.85.4 6.55-1.8 11.3-2.2 4.75-6.4 6.45-.2-7.2-8.55-12.25" class="D"/><path d="M146.75 97.75q2.75-1.75 5.6-1 3.9 1.1 5.9 6.1 1.95 4.95.95 11.15-.65 3.8-2.35 6.75-1.65 3-4 4.5-2.75 1.75-5.6 1-3.9-1.1-5.9-6.05-1.95-5-.95-11.2.65-3.8 2.3-6.75 1.7-3 4.05-4.5" class="B"/><path fill="#fff" d="M151.85 98.05q3.1.85 4.75 5.35 1.6 4.45.75 9.8-.55 3.35-2.05 6.05-1.45 2.7-3.45 3.95-2.05 1.3-4.1.75-3.1-.85-4.75-5.35-1.6-4.45-.75-9.75.55-3.4 2.05-6.05 1.45-2.7 3.45-4 2.05-1.3 4.1-.75"/><path d="M147.8 110.25q.1-.7.5-1.1.4-.45.85-.4l.65.65.1 1.2-.55 1.15q-.4.45-.8.35-.45-.05-.65-.6-.2-.55-.1-1.25M56 127.35q6.15-2.5 15.35-2.6 8.3-.15 14.95 1.55 8.4 2.2 13.85 16.2 3.05 7.8 6.05 23.1l.95 4.9q.75 3.05-.6 4.3-.95.95-2.95.85l-4.2-.75-3.25-.7q-1.2-.2-2.75 1.25l-3 3-4 3.65q-2.35 1.7-4.25 1.15-.7-.25-2.45-1.6l-3.95-3.4-2.45-2.35q-1.4-1.35-1.85-1.35-.35.15-4.55 2.4l-4.85 2.65q-2.5 1-4.25-.05-1.95-1.15-3.8-3.55l-2.5-3.5q-1.45-2.05-3.35-2.3l-6.1 1.3q-5.45 1.4-7.4 2.2-3 1.3-3.5 1.05-.8-.4-.35-4.2 1.25-10.15 9.85-25.2 8.8-15.4 15.35-18" class="B"/><path d="M71.3 126.6q8.2-.1 14.55 1.55 7.65 2 12.8 15.5 2.85 7.6 5.7 22.3l1 4.95q.45 1.95-.1 2.6l-2.15.25-3.25-.65-3.45-.75q-1.85-.25-4 1.2-1.3.9-3.75 3.35l-3.15 2.8q-1.7 1.15-2.9.8-.9-.25-5.65-4.45l-4.25-3.3q-1.1-.6-1.85-.35-2.3.8-4.5 2.05l-4.25 2.35q-2.3 1-3.35.2-2.65-2-5.5-6.05l-1.8-1.95q-.9-.65-2.35-.85-1.05-.1-7.15 1.15-6.2 1.3-8.2 2.15l-.1.05-.1-.7q0-1.6.9-4.6 2.95-9.9 9.95-22.05 7.5-13.15 12.3-15.1 5.75-2.3 14.6-2.45" class="C"/><path d="M76.4 133.2q-3.85-1.2 1.2-3.55 5.05-2.35 8.25-1.5 7.65 2 12.8 15.5 2.85 7.6 5.7 22.3l1 4.95q.45 1.95-.1 2.6l-2.15.25-3.25-.65-3.45-.75q-1.85-.25-4 1.2-1.3.9-3.75 3.35l-1.75 1.65q2.45-12.25-1.9-28.6-4.1-15.35-8.6-16.75" class="D"/><path d="M91.5 42.35q18.2 7.4 25.85 25.55 7.65 18.1.25 36.25-3.95 9.55-11.65 16.8-7.5 6.95-16.5 9.95-7.35 2.4-18.8 1.85l-10-1L55.7 130q-19.55-7.95-27.35-24.25-8.2-17.15 0-37.25 7.4-18.15 26.2-25.9 18.75-7.7 36.95-.25" class="C"/><path d="M119.45 74q2 7.4 1.55 14.95-.4 7.85-3.4 15.2-3.95 9.55-11.65 16.8-7.5 6.95-16.5 9.95l-7.7 2.35q-5.5 1.2-10.1.1-1.85-.45-1.25-.75l3.55-1.05q8.8-2.6 15.65-8.05 7.2-5.65 15.55-16.6 13.2-17.45 14.3-32.9" class="D"/><path d="M91.7 41.5q18.65 7.6 26.75 25.85 8.15 18.4.65 36.75-3.7 9.1-12.6 17.15-8.2 7.4-16.75 10.5-3.55 1.35-3.75.4-.15-.9 3.15-2.15 6-2.3 13.65-9.5 8.45-7.9 12.75-16.2 8.55-16.4 1-35.1-7.5-18.7-25.4-26-17.8-7.25-36.15.45Q36.65 51.3 29.35 69.1q-8.3 20.35.8 38.05 9.05 17.55 30.75 23.9 1.15.35 1.15 1.2.05.8-1.7.4-21.5-5.55-31.65-23.35-10.8-18.9-1.75-41.1 7.7-18.8 28-26.45Q74.3 34.4 91.7 41.5M39.2 65.8q-.35.25-1-.55-.65-.8-.3-1.05l3.2-2.75 4.55-3.5 4.05.1q1.9 2.45 5.55 10.7.2.35-.6.95-.85.55-1.1.2l-2.5-4.6-3.15-5.25q-.5-.45-4.65 2.6L39.2 65.8" class="B"/><path d="M118.45 82.2q.6 2.65-.15 15.7l-1.6 27.2q-1.9 39 3.1 49.15 6.25 12.8 3.9 17.2-1.95 3.7-14.85 7.25-5 1.4-8.15-1.95-2.85-3-7.3-13.5-3.3-7.8 2.95-49l7.95-46.6q1.1-7.1 6.95-9.5l4.4-.1q2.15 1.05 2.8 4.15" class="C"/><path d="M104.3 87.65l.25-2q.15-1.15.7-1.2.7-.1 1.15 1.25.55 1.45.35 4.05-.7 11.3-3.1 28.3L99.7 145.5q-4.05 30.35.8 38.9 3.7 6.6 5.65 11.1.5 1.1 2.7 3.2-5 1.4-8.15-1.95-2.85-3-7.3-13.5-3.3-7.8 2.95-49l7.95-46.6" class="D"/><path d="M117.55 82.3q.05-2.6 1-2.55.9.1.85 2.4l-.05 12.65q-.15 12-.65 20-1.4 22.2-1.25 33.85.3 17.7 3.8 24.85 3.4 6.9 4.3 11.25.85 4.15-.4 6.85-2.5 5.6-16.05 8-5.8 1.05-9.9-3.15-3.55-3.7-7.2-13.15-3.1-8.25 2.7-46.25l8.7-49.6q.55-3.1 1.4-2.8.8.35.45 3.2-4.15 22.5-7.35 44.2-6.4 42.95-3.2 50.4 4.3 10.15 7.2 12.95 2.65 2.55 7.3 1.6 5.75-1.25 8.75-2.55 3.5-1.55 4.5-3.7 1.05-2.3.35-5.9-.8-4-3.85-10.2-3.6-7.35-3.75-25.55-.1-10.7 1.4-34.4l.75-19.65.2-12.75" class="B"/><path fill="#922f00" d="M82.3 88.8l9.45-2q-2.15 13.95-11.9 25.65-10.8 12.95-22.65 11.3-14.65-2.05-20.15-16.55-5.5-14.55 1.1-34.45l5.75 7.4 9.15-4.65 6.55 8.75L72.75 80l9.55 8.8"/><g class="B"><path d="M90.65 87.2l1.8.3q-2.2 14.1-12.05 25.8-11 13.1-23.35 11.35-12.4-1.75-18.65-11.8-4.5-7.2-4.85-17.95-.4-10.85 3.55-20.9 1-2.45 1.8-2 .85.45 0 2.6-4 9.9-3.6 20.25.4 10.05 4.7 17 5.85 9.35 17.3 10.95 11.6 1.65 21.95-10.9 9.3-11.2 11.4-24.7"/><path d="M90 95.3l.4.4-.2.55q-4.6 12.8-13.2 21.15-9.55 9.3-19.7 8.1-10.35-1.2-16.75-9.3-6.3-7.9-6.9-19.85v-.4l.3-.3Q45 85.1 63.35 85.35q17.8.2 26.65 9.95"/></g><path fill="#ed8599" d="M65.35 87.55q7.3.25 13.45 2.7 5.8 2.25 9.4 5.95-4.4 11.9-12.55 19.5-9 8.4-18.35 7.1-9.55-1.35-15.3-8.25-5.75-6.95-6.4-17.85 4.75-4.3 12.7-6.85 8.3-2.65 17.05-2.3"/><path d="M86.9 88.5L82 89.6l-4.25-4.15-4.25-4.3q-.5-.3-7.1 1.85l-7.1 2.15q-.4-.05-3.45-4.3l-3.2-4.3q-.15-.05-4.55 2.35-4.35 2.35-4.8 2.2-.45-.15-2.65-3.9l-2.4-4q-.25-.25-3 1.05l-3.85 1.8q-1.1.35-1.15-.3 0-.65.75-1.2.95-.65 3.85-1.95 3.25-1.4 3.95-1.25.6.15 2.9 3.85l2.4 3.7 4.4-2.15q4.2-2.1 4.55-2 .35.1 3.55 4.05l3.4 4.05 6.8-1.95q6.65-2 7.2-1.85.55.1 4.45 4.25l4.15 4.25 4.85-1.2Q92 85.1 92.5 85.4q.65.45 2.3 3.4 1.7 2.95 1.95 4.15.3 1.25.05 1.7-.3.4-1.05-.45l-2.25-3.65-1.85-3.05-4.75 1m-2.6-23.15q.8-.45 1.75-.35 1.1.15 1.75.95l9.9 13.85q.2.35-.7.9l-1.1.1-4.85-6-5.45-6.3q-.45-.3-5.9 3l-5.3 3.3q-.35.25-.95-.6-.55-.85-.2-1.1l11.05-7.75" class="B"/><path d="M82.5 32.2q5.4 7.85 7.35 13.25-1.55 4.8-6.9 7.75-10.75 5.85-29.8-3.55-9.6-4.75-16.8-11.85-6.95-6.85-9.75-14-2.85-7.4-.3-12.95Q29.05 4.8 37.7 2.3q13.55-3.95 31.85 14.3 7.05 7 12.95 15.6" class="C"/><path d="M38.35 39.65q-5.65-5.25-8.7-11.2 7.45 9.15 24.6 16.4 9.55 4 20.95 6.95 8.1 2-.55 3.55-3.05.6-8.75-.85-6.1-1.55-12.75-4.85-8.6-4.25-14.8-10" class="D"/><path d="M90.7 45.15q.95 2.05 0 2.3-.95.2-1.75-1.7-3.5-8.2-14.7-21.35Q60.2 7.9 48.55 3.85q-8.6-3-15 .9-5.95 3.6-6.45 10.4-.7 9.45 7.65 19.45 7.75 9.35 18.85 14.25 5.05 2.2 3.55 2.55-1.55.3-4.45-.95-11.65-4.85-20-14.4-9.4-10.7-8.2-21.15.85-7.7 6.8-11.9Q37.95-1.7 47.65.9 59.4 4.05 73.8 20.5q11.75 13.45 16.9 24.65" class="B"/></svg>