<svg xmlns="http://www.w3.org/2000/svg" viewBox="0 0 27.9 32" fill="#0086ff" xmlns:v="https://vecta.io/nano"><path d="M27.005 31.205V.705h-2.19v-.732h3.04v32h-3.04v-.732zm-18.87-20.8v1.54h.044c.385-.564.893-1.03 1.49-1.37.58-.323 1.25-.485 1.99-.485.72 0 1.38.14 1.97.42s1.05.771 1.36 1.48c.338-.5.796-.941 1.38-1.32s1.27-.574 2.06-.574c.602 0 1.16.074 1.67.22s.954.383 1.32.707.653.746.859 1.27.308 1.15.308 1.89v7.63h-3.13v-6.46l-.044-1.08a2.3 2.3 0 0 0-.242-.882 1.47 1.47 0 0 0-.584-.596c-.257-.146-.606-.22-1.05-.22s-.796.085-1.07.253a1.84 1.84 0 0 0-.639.662 2.65 2.65 0 0 0-.308.927c-.052.347-.078.697-.078 1.05v6.35h-3.13v-6.4l-.021-1a2.82 2.82 0 0 0-.188-.916 1.41 1.41 0 0 0-.55-.673c-.258-.168-.636-.253-1.14-.253a2.32 2.32 0 0 0-.584.1 1.95 1.95 0 0 0-.705.374c-.228.184-.422.449-.584.794s-.242.798-.242 1.36v6.62h-3.13v-11.4zM.841.737v30.5h2.19v.732h-3.04v-32h3.03v.732z"/></svg>