<svg xmlns="http://www.w3.org/2000/svg" width="300" height="300" xmlns:v="https://vecta.io/nano"><path d="M212.898 120.345c-15.31-67.54-47.22-85.52-55.36-98.23a144.57 144.57 0 0 1-8.9-17.42c-.43 6-1.22 9.78-6.32 14.33-10.24 9.13-53.73 44.57-57.39 121.31-3.41 71.55 52.6 115.67 60 120.23 5.69 2.8 12.62.06 16-2.51 27-18.53 63.89-67.93 52-137.71" fill="#10aa50"/><path d="M150.958 222.465c-1.41 17.71-2.42 28-6 38.12 0 0 2.35 16.86 4 34.72h5.84a324.73 324.73 0 0 1 6.37-37.39c-7.56-3.72-9.92-19.91-10.21-35.45z" fill="#b8c4c2"/><path d="M161.158 257.925h0c-7.64-3.53-9.85-20.06-10.19-35.46a725.83 725.83 0 0 0 1.65-76.35c-.4-13.36.19-123.74-3.29-139.9a134.29 134.29 0 0 0 8.21 15.89c8.14 12.72 40.06 30.7 55.36 98.24 11.92 69.66-24.77 118.93-51.74 137.58z" fill="#12924f"/></svg>