<svg xmlns="http://www.w3.org/2000/svg" width="400" height="400" xmlns:v="https://vecta.io/nano"><style><![CDATA[.B{opacity:.967}.C{stroke-linejoin:round}.D{fill-rule:evenodd}.E{stroke-width:1.05}]]></style><defs><linearGradient id="A" href="#M"><stop offset="0" stop-color="#b3b3b3"/><stop offset="1" stop-color="#b3b3b3" stop-opacity="0"/></linearGradient><radialGradient id="B" cx="333.528" cy="217.583" fx="333.528" fy="217.583" r="29.875" gradientTransform="matrix(-0.95122439,-0.37973408,-0.79004638,1.9790465,561.77552,-104.77634)" href="#M"><stop offset="0" stop-color="#e6e6e6"/><stop offset="1" stop-color="#e6e6e6" stop-opacity="0"/></radialGradient><radialGradient id="C" cx="172.614" cy="303.206" fx="172.614" fy="303.206" r="22.63" gradientTransform="matrix(1,0,0,0.63328545,0,119.49923)" href="#M"><stop offset="0" stop-color="#999"/><stop offset="1" stop-color="#999" stop-opacity="0"/></radialGradient><radialGradient id="D" cx="335.086" cy="219.037" fx="335.086" fy="219.037" r="29.875" gradientTransform="matrix(0.54659184,-0.27740671,0.6404924,1.2620022,11.607646,18.444794)" href="#M"><stop offset="0" stop-color="#969696"/><stop offset="1" stop-color="#e6e6e6" stop-opacity="0"/></radialGradient><radialGradient r="38.625" fy="25.979" fx="250.46" cy="25.979" cx="250.46" gradientTransform="matrix(-1.1864466,0.79500993,0.21180507,0.31609089,435.38812,-174.97097)" id="E" href="#M"><stop offset="0" stop-color="#afafaf"/><stop offset="1" stop-color="#e6e6e6" stop-opacity="0"/></radialGradient><radialGradient r="103.516" fy="230.123" fx="458.028" cy="230.123" cx="458.028" gradientTransform="matrix(0.41734111,-0.01064379,0.00887794,0.34810258,9.439031,55.321448)" id="F" href="#M"><stop offset="0" stop-color="#bebebe"/><stop offset="1" stop-color="#b3b3b3" stop-opacity="0"/></radialGradient><radialGradient r="38.625" fy="25.979" fx="250.46" cy="25.979" cx="250.46" gradientTransform="matrix(1.1864466,0.79500993,-0.21180507,0.31609089,-32.887133,-175.8174)" id="G" href="#M"><stop offset="0" stop-color="#afafaf"/><stop offset="1" stop-color="#e6e6e6" stop-opacity="0"/></radialGradient><radialGradient r="29.875" fy="219.037" fx="335.086" cy="219.037" cx="335.086" gradientTransform="matrix(-0.54659184,-0.27740671,-0.6404924,1.2620022,394.97125,17.340932)" id="H" href="#M"><stop offset="0" stop-color="#969696"/><stop offset="1" stop-color="#e6e6e6" stop-opacity="0"/></radialGradient><radialGradient href="#A" id="I" cx="9" cy="10" fx="1" fy="10" r="10"/><radialGradient href="#A" id="J" cx="212.031" cy="217.677" fx="212.031" fy="217.677" r="16.494" gradientTransform="matrix(1,0,0,1.5166132,0,-112.45505)"/><radialGradient href="#A" id="K" cx="248.859" cy="217.677" fx="248.859" fy="217.677" r="16.697" gradientTransform="matrix(1,0,0,1.4981632,0,-108.43892)"/><radialGradient id="L" cx="206.644" cy="214.435" fx="206.644" fy="214.435" r="190.25" gradientTransform="matrix(0.97267227,0.01617535,-0.01665626,0.97473856,9.2187856,2.0743911)" href="#M"><stop offset="0" stop-opacity="0"/><stop offset=".817" stop-opacity=".02"/><stop offset=".899" stop-opacity=".145"/><stop offset=".912" stop-opacity=".208"/><stop offset=".956" stop-opacity=".251"/><stop offset="1" stop-opacity=".333"/></radialGradient><linearGradient id="M" gradientUnits="userSpaceOnUse"/></defs><path d="M394.463 202.425c0 50.977-20.386 99.866-56.674 135.912s-85.505 56.297-136.823 56.297-100.535-20.251-136.823-56.297S7.468 253.402 7.468 202.425s20.386-99.866 56.674-135.912 85.505-56.297 136.823-56.297 100.535 20.251 136.823 56.297 56.674 84.935 56.674 135.912z" fill="#1a1a1a" stroke="#000" stroke-width="5.001" class="C"/><g fill="#fff"><path d="M390.785 167.349c0 50.822-20.189 99.563-56.126 135.499s-84.677 56.126-135.499 56.126-99.563-20.189-135.499-56.126S7.535 218.171 7.535 167.349 27.724 67.786 63.661 31.849s84.677-56.126 135.499-56.126 99.563 20.189 135.499 56.126 56.126 84.677 56.126 135.499z" opacity="0" class="D"/><path d="M388.191 199.721c0 49.368-19.654 96.715-54.638 131.624s-82.434 54.52-131.909 54.52-96.925-19.612-131.909-54.52-54.638-82.255-54.638-131.624S34.75 103.006 69.735 68.097s82.434-54.52 131.909-54.52 96.925 19.612 131.909 54.52 54.638 82.255 54.638 131.624z" opacity=".9"/><path d="M389.559 199.59c0 49.792-20.066 97.545-55.784 132.754s-84.162 54.988-134.675 54.988-98.957-19.78-134.675-54.988S8.642 249.382 8.642 199.59s20.066-97.545 55.784-132.754 84.162-54.988 134.675-54.988 98.957 19.78 134.675 54.988 55.784 82.961 55.784 132.754z" stroke="#333" stroke-width="1.514" class="C"/></g><path d="M394.313 201.655c0 51.192-20.472 100.287-56.913 136.485s-85.865 56.534-137.4 56.534S99.041 374.338 62.6 338.14 5.687 252.847 5.687 201.655 26.159 101.367 62.6 65.169 148.465 8.635 200 8.635s100.959 20.336 137.4 56.534 56.913 85.294 56.913 136.485z" fill="none" stroke="#000" stroke-width="2.008" class="C"/><path d="m 385.62498,214.43469 a 178.98123,174.04742 0 1 1 -357.962459,0 178.98123,174.04742 0 1 1 357.962459,0 z" transform="matrix(1.076491 0 0 1.100935 -20.513668 -34.695518)" opacity=".75" fill="url(#L)"/><g class="D"><path d="M154.671 33.7c-25.884-.646-52.104 16.49-58.645 42.133-1.524 6.216-2.145 12.11-2.255 18.114v66.804h26.25l.179-70.426c.807-14.955 12.362-30.721 28.401-30.539l.189 71.412c1.368 19.347 19.7 35.36 39.106 33.72 12.123-.294 24.337.707 36.38-.761 18.339-3.438 31.031-22.116 29.325-40.372v-63.9c16.682-1.218 29.334 14.976 30.074 30.539l.179 70.426h26.25V89.973c-.859-7.64-2.07-16.989-6.211-24.358-10.74-21.789-35.861-33.545-59.553-31.774-6.921-.879-14.366 3.801-16.261 10.36l-.016 84.231c-.791 11.76-12.38 20.752-23.945 19.259-8.182.355-17.423.014-23.004-7.016-7.52-7.949-5.001-19.326-5.443-29.202l.131-68.355c-3.422-6.921-11.028-10.493-18.563-9.358l-1.247-.017-1.321-.042h0z" stroke="#fff" class="E"/><path d="M107.27 156.262v177.844c-35.128-3.853-62.737-42.188-62.737-88.922s27.609-85.068 62.737-88.922z" fill="url(#B)" class="B"/><g stroke="#fff"><g class="E"><path d="M299.59 329.324c-.734-.007-3.476-.604-4.137-.175 0 0-1.087 3.168-4.834 5.956-3.289 2.448-6.413 4.794-9.759 6.996-3.005 1.976-6.229 4.114-9.25 5.568-2.377 1.144-4.32 1.311-4.32 1.311h-33.831c-2.113 0-3.845 1.667-3.845 3.741v.919c0 2.074 1.732 3.773 3.845 3.773h35.573c.819 0 3.777-.861 5.536-1.633 4.386-1.924 7.244-4.374 12.295-7.379 5.37-3.435 15.301-11.43 15.301-11.43 1.764-1.143 2.234-3.453 1.07-5.184l-.502-.788c-.728-1.082-1.919-1.662-3.143-1.673z"/><path d="M297.307 156.369v177.844c35.128-3.853 62.738-42.188 62.738-88.922s-27.609-85.068-62.738-88.922zm-191.128.945v177.844c-35.128-3.853-62.738-42.188-62.738-88.922s27.609-85.068 62.738-88.922z" class="B"/></g><path d="M233.639 352.008c0 9.278-12.928 16.8-28.875 16.8s-28.875-7.522-28.875-16.8 12.928-16.8 28.875-16.8 28.875 7.522 28.875 16.8z" stroke-width="1.261" class="B"/><rect width="13.329" height="171.946" x="274.718" y="146.09" rx="3.888" ry="3.54" transform="matrix(1.043334 0 0 1.050017 -4.656294 .094873)" stroke-width="1.054" class="B"/><rect width="13.063" height="171.957" x="106.561" y="147.085" rx="3.81" ry="3.54" transform="matrix(1.043334 0 0 1.050017 -3.834759 .094873)" stroke-width="1.043" class="B"/></g><path d="M131.636 188.831h140.835v111.885H131.636z"/><path d="M4.4 18.6H0V0h4.5c5.6 0 4.3 8 2 8.5 3.5 0 4 9.4-1 10.1zM2.8 7.4V3.5H4c.862 0 1.56.873 1.56 1.95S4.862 7.4 4 7.4zm0 7.8v-4.6h1.7c1.016 0 1.84 1.03 1.84 2.3s-.824 2.3-1.84 2.3z" transform="matrix(4.4 0 0 5 144 198)" fill="url(#I)"/><path d="M159.36 291H140v-93h19.8c24.64 0 18.92 40 8.8 42.5 15.4 0 17.6 47-4.4 50.5zm-7.04-56v-19.5h5.28c3.791 0 6.864 4.365 6.864 9.75S161.391 235 157.6 235zm0 39v-23h7.48c4.471 0 8.096 5.149 8.096 11.5S164.271 274 159.8 274z" fill="#fff"/></g><path d="M227.563 240.943H196.5v-46.531h11.688v37.656h19.375z" transform="matrix(1.100722 0 0 2.000072 -23.811797 -190.28066)" fill="url(#J)"/><path d="M187.313 197.563v94.531h14.125.063 21.375v-19.25H201.5v-75.281h-14.187z" fill="#fff"/><path d="M233.125 240.943v-46.531h31.469v8.875H244.75v8.156h18.281v8.875H244.75v11.75h19.844v8.875z" transform="matrix(1.100722 0 0 2.000072 -23.811797 -190.28066)" fill="url(#K)"/><path d="M227.813 197.5v94.531H242h21.375v-19.25H242V250.5h19.656v-18.656H242V216.75h21.375V197.5H242h-.062-14.125z" fill="#fff"/><g class="D"><path d="M155.37 33.01c-25.884-.646-52.104 16.49-58.645 42.133-1.524 6.216-2.145 12.11-2.255 18.114v66.804h26.25l.179-70.426c.807-14.955 12.362-30.721 28.401-30.539l.189 71.412c1.368 19.347 19.7 35.36 39.106 33.72 12.123-.294 24.337.707 36.38-.761 18.339-3.438 31.031-22.116 29.325-40.372v-63.9c16.682-1.218 29.334 14.976 30.074 30.539l.179 70.426h26.25V89.284c-.859-7.64-2.07-16.989-6.211-24.358-10.74-21.789-35.861-33.545-59.553-31.774-6.921-.879-14.365 3.801-16.261 10.36l-.016 84.231c-.791 11.76-12.38 20.752-23.945 19.259-8.182.355-17.423.014-23.004-7.016-7.52-7.949-5.001-19.326-5.443-29.202l.131-68.355c-3.422-6.921-11.028-10.493-18.563-9.358l-1.247-.017-1.321-.042h0z" fill="url(#F)"/><path d="M154.532 34.269c-31.655 0-56.169 21.233-59.981 48.759h26.972c3.645-12.426 13.114-21.517 24.511-22.575.74-.7 1.772-1.148 2.92-1.148h26.611l.098-15.619s-2.378-3.725-4.298-5.48c-2.175-1.988-5.112-3.428-8.006-3.741-2.425-.262-5.2-.041-8.827-.197z" fill="url(#E)"/><path d="m 194.74412,325.86444 a 22.130014,13.831259 0 1 1 -44.26003,0 22.130014,13.831259 0 1 1 44.26003,0 z" transform="matrix(1.304789 0 0 1.21464 -20.43351 -43.907478)" fill="url(#C)" class="B"/><path d="M298.657 157.256V335.1c35.128-3.853 62.738-42.188 62.738-88.922s-27.609-85.068-62.738-88.922z" fill="url(#D)" class="B"/><path d="M247.969 33.422c31.655 0 56.169 21.233 59.981 48.759h-26.972c-3.645-12.426-13.114-21.517-24.511-22.575-.74-.7-1.772-1.148-2.92-1.148h-26.611l-.098-15.619s2.378-3.725 4.298-5.48c2.175-1.988 5.112-3.428 8.006-3.741 2.425-.262 5.2-.041 8.827-.197z" fill="url(#G)"/><path d="M107.922 156.152v177.844c-35.128-3.853-62.737-42.188-62.737-88.922s27.609-85.068 62.737-88.922z" fill="url(#H)" class="B"/></g></svg>