<svg xmlns="http://www.w3.org/2000/svg" width="800" height="800" viewBox="-17.5 0 291 291" preserveAspectRatio="xMidYMid" xmlns:v="https://vecta.io/nano"><path d="M2.054 218.187c1.32 2.347 3.228 4.108 5.575 5.428l112.963 65.137h0c4.695 2.787 10.416 2.787 14.964 0l112.963-65.137c4.695-2.641 7.482-7.629 7.482-13.057V80.284h0c0-5.428-2.787-10.416-7.482-13.057L135.555 2.091h0c-4.695-2.787-10.416-2.787-14.964 0h0L7.629 67.228C2.787 69.868 0 74.856 0 80.284h0v130.421c0 2.641.587 5.135 2.054 7.482" fill="#009639"/><path d="M91.837 195.154a14.46 14.46 0 0 1-14.524 14.524 14.46 14.46 0 0 1-14.524-14.524h0V95.542c0-7.775 6.895-14.084 16.431-14.084 6.895 0 14.964 2.787 19.805 8.802l4.401 5.281 60.736 72.619V95.835h0a14.46 14.46 0 1 1 29.048 0h0v99.613c0 7.775-6.895 14.084-16.431 14.084-6.895 0-14.964-2.787-19.805-8.802l-65.137-77.754v72.179h0z" fill="#fff"/></svg>