<svg xmlns="http://www.w3.org/2000/svg" width="351.46" height="258.785" viewBox="35.188 31.512 351.46 258.785" xmlns:v="https://vecta.io/nano"><path fill="#77b900" d="M74.187 145.098s31.075-45.848 93.12-50.592V77.872c-68.724 5.519-128.236 63.725-128.236 63.725s33.707 97.44 128.236 106.361v-17.68c-69.37-8.727-93.12-85.181-93.12-85.181zm93.12 50.019v16.192c-52.428-9.347-66.981-63.846-66.981-63.846s25.173-27.886 66.981-32.409v17.767c-.032 0-.054-.01-.08-.01-21.943-2.633-39.085 17.865-39.085 17.865s9.608 34.509 39.165 44.44m0-147.924v30.68c2.017-.155 4.035-.286 6.063-.355 78.131-2.633 129.039 64.08 129.039 64.08s-58.469 71.097-119.384 71.097c-5.583 0-10.809-.518-15.718-1.388v18.972c4.198.533 8.55.846 13.092.846 56.685 0 97.679-28.95 137.373-63.213 6.581 5.271 33.524 18.093 39.063 23.706-37.741 31.598-125.7 57.069-175.567 57.069-4.807 0-9.423-.291-13.96-.729v26.659h215.457V47.192zm0 67.861V94.507a158.66 158.66 0 0 1 6.063-.312c56.184-1.765 93.045 48.281 93.045 48.281s-39.813 55.293-82.5 55.293c-6.143 0-11.652-.987-16.609-2.654V132.82c21.873 2.643 26.275 12.305 39.425 34.226l29.246-24.661s-21.349-28-57.338-28c-3.912-.001-7.655.273-11.331.667"/></svg>