<?xml version="1.0" encoding="UTF-8" standalone="no"?>
<!-- Generator: Adobe Illustrator 16.0.0, SVG Export Plug-In . SVG Version: 6.00 Build 0)  -->

<svg
   version="1.1"
   id="svg2"
   x="0px"
   y="0px"
   width="351.46px"
   height="258.785px"
   viewBox="35.188 31.512 351.46 258.785"
   enable-background="new 35.188 31.512 351.46 258.785"
   xml:space="preserve"
   sodipodi:docname="Nvidia_logo.svg"
   inkscape:version="1.3 (0e150ed6c4, 2023-07-21)"
   xmlns:inkscape="http://www.inkscape.org/namespaces/inkscape"
   xmlns:sodipodi="http://sodipodi.sourceforge.net/DTD/sodipodi-0.dtd"
   xmlns="http://www.w3.org/2000/svg"
   xmlns:svg="http://www.w3.org/2000/svg"><defs
   id="defs1" /><sodipodi:namedview
   id="namedview1"
   pagecolor="#ffffff"
   bordercolor="#000000"
   borderopacity="0.25"
   inkscape:showpageshadow="2"
   inkscape:pageopacity="0.0"
   inkscape:pagecheckerboard="0"
   inkscape:deskcolor="#d1d1d1"
   inkscape:zoom="0.94962274"
   inkscape:cx="166.38186"
   inkscape:cy="157.43094"
   inkscape:window-width="1920"
   inkscape:window-height="1061"
   inkscape:window-x="0"
   inkscape:window-y="19"
   inkscape:window-maximized="1"
   inkscape:current-layer="svg2" />&#10;<title
   id="title4">generated by pstoedit version:3.44 from NVBadge_2D.eps</title>&#10;&#10;&#10;<path
   id="path21"
   fill="#77b900"
   d="m 74.186797,145.09756 c 0,0 31.074663,-45.848407 93.120463,-50.591631 V 77.872195 C 98.583672,83.391457 39.071749,141.5971 39.071749,141.5971 c 0,0 33.70658,97.43977 128.235511,106.36144 V 230.27812 C 97.937445,221.55115 74.186797,145.09756 74.186797,145.09756 Z m 93.120463,50.01856 V 211.308 c -52.42817,-9.34699 -66.98096,-63.84643 -66.98096,-63.84643 0,0 25.17292,-27.88629 66.98096,-32.40857 v 17.7674 c -0.0319,0 -0.0539,-0.01 -0.0801,-0.01 -21.94311,-2.63329 -39.085,17.86544 -39.085,17.86544 0,0 9.60796,34.50885 39.16509,44.43994 m 0,-147.923688 v 30.679754 c 2.01742,-0.154655 4.03484,-0.285836 6.06331,-0.354879 78.13133,-2.633283 129.03917,64.079793 129.03917,64.079793 0,0 -58.46937,71.09726 -119.38426,71.09726 -5.58278,0 -10.8093,-0.51782 -15.71822,-1.38775 v 18.97151 c 4.19778,0.533 8.55023,0.84646 13.09185,0.84646 56.68532,0 97.67865,-28.94955 137.3726,-63.21261 6.58114,5.2707 33.52431,18.0933 39.0629,23.70645 -37.74142,31.59802 -125.70027,57.0692 -175.56695,57.0692 -4.80675,0 -9.42293,-0.29135 -13.9604,-0.72909 v 26.65872 H 382.76424 V 47.19244 Z m 0,67.860558 V 94.507309 c 1.99671,-0.139465 4.00861,-0.247171 6.06331,-0.312071 56.18407,-1.764729 93.04452,48.281462 93.04452,48.281462 0,0 -39.8127,55.29342 -82.50034,55.29342 -6.14341,0 -11.65163,-0.9873 -16.60887,-2.654 V 132.8204 c 21.87269,2.64295 26.27484,12.30476 39.42469,34.22577 l 29.24641,-24.66062 c 0,0 -21.34934,-27.99951 -57.33846,-27.99951 -3.91196,-10e-4 -7.65544,0.27341 -11.33126,0.66696"
   style="stroke-width:1.38085" />&#10;</svg>
