<svg xmlns="http://www.w3.org/2000/svg" width="256" height="256" viewBox="0 0 67.733 67.733" xmlns:v="https://vecta.io/nano"><g transform="matrix(.865724 0 0 .865724 -62.569509 -71.73)"><g fill="none" stroke="#4c4c4c" stroke-width=".733"><path d="M93.015 88.56l25.058 27.635 2.951-28.016"/><path d="M139.617 149.309l-21.489-33.351-20.396 39.714"/><path d="M75.159 125.232l19.847 4.126 44.964-4.954 1.424 13.295"/><path d="M85.923 149.117l9.409-19.89-10.772-29.7"/><path d="M118.125 151.531l-23.223-22.367 23.236-13.274m19.261-18.377l-19.703 18.898"/><path d="M127.3 98.294l-.742 22.088 16.8-15.656m.61 10.791l-4.362 8.719"/></g><g fill="#f26822"><circle cx="93.146" cy="88.292" r="2.448"/><circle cx="121.228" cy="88.839" r="2.448"/><circle cx="136.691" cy="97.419" r="2.448"/><circle cx="95.041" cy="129.279" r="2.448"/><circle cx="139.481" cy="125.03" r="2.448"/><circle cx="139.892" cy="149.432" r="2.448"/><circle cx="97.8" cy="155.658" r="2.448"/><circle cx="118.058" cy="151.65" r="1.555"/><circle cx="85.771" cy="149.233" r="1.555"/><circle cx="75.151" cy="125.212" r="1.555"/><circle cx="84.669" cy="99.172" r="1.555"/><circle cx="127.445" cy="98.594" r="1.227"/><circle cx="143.603" cy="104.333" r="1.227"/><circle cx="143.953" cy="115.527" r="1.227"/><circle cx="141.44" cy="137.715" r="1.227"/><circle cx="117.859" cy="115.991" r="4.264"/></g></g><circle cx="33.867" cy="33.867" r="19.707" fill="#fff"/><path d="M33.866 13.878c-11.038 0-19.989 8.95-19.989 19.988 0 2.206.357 4.328 1.018 6.314h5.978V23.362l12.993 12.993 12.993-12.993V40.18h5.978c.661-1.985 1.018-4.107 1.018-6.314 0-11.038-8.951-19.988-19.989-19.988" fill="#f60"/><path d="M30.879 39.342l-5.67-5.67v10.582h-2.168-2.168-4.087c3.509 5.757 9.846 9.601 17.08 9.601s13.572-3.844 17.08-9.601h-4.088-3.877-.458V33.672l-5.67 5.67-2.987 2.987-2.987-2.987z" fill="#4c4c4c"/></svg>