<svg xmlns="http://www.w3.org/2000/svg" width="112" height="112" xmlns:v="https://vecta.io/nano"><defs><linearGradient id="A" x1="118.541" x2="118.541" y1="57.107" y2="116.826" gradientUnits="userSpaceOnUse"><stop offset="0" stop-color="#fff"/><stop offset="1" stop-color="#fff" stop-opacity="0"/></linearGradient><radialGradient id="B" cx="117" cy="98.3" r="55.9" gradientTransform="matrix(0.95936516,1.4873115,-0.82343868,0.53188623,80.176228,-126.3743)" gradientUnits="userSpaceOnUse"><stop offset="0"/><stop offset="1" stop-opacity=".897"/></radialGradient></defs><g transform="translate(-62.3 -55.9)"><path d="M117.999 56.732c-30.436 0-55.06 24.526-55.06 54.765s24.624 54.765 55.06 54.765a54.9 54.9 0 0 0 27.284-7.2l2.866 7.2h22.162l-8.678-21.472c7.112-9.219 11.327-20.783 11.327-33.292 0-30.239-24.624-54.765-54.962-54.765z" fill="url(#B)"/><ellipse cx="117.507" cy="87.602" rx="36.612" ry="31.257" fill="url(#A)"/><circle cx="123.584" cy="78.5" r="6.471"/><path d="M111.442 82.44l36.665 5.296-1.029 5.32-36.665-5.296z"/><path d="M144.594 89.335h6.471v2.856h-6.471z"/><path d="M103.225 65.696c-.056 2.157-3.812.279-3.969 2.738-4.157-1.852.324 2.827-.092 3.26h-.031l-.307-.031a4.82 4.82 0 0 1-.924-.462c-2.906 2.315-2.975 7.121-5.969 9.791-1.96 4.245-2.443 8.845-3.881 13.297-.707 4.235-1.33 8.471-.277 12.706.316 3.447-.679 8.136 2.462 10.539 4.659 3.822 8.53 8.668 12.411 13.297 6.127 7.535 11.524 15.661 16.351 24.033.319-2.088 1.093 4.196 2.492 4.62-.485-3.142-1.113-8.136-1.418-12.017-1.556-10.145-6.55-19.305-8.431-29.352l-.185-1.29v-1.261h-.154c-.617-4.964-.837-10.342 2.768-14.184 3.684-3.713 9.17-4.649 13.593-7.23a14.99 14.99 0 0 1 3.073-1.389c.009-.003.022.003.031 0 3.073-.949 6.353-.919 9.544-.4.047.008.106.023.154.031l.892.154c2.334.208 7.033 1.123 7.88-.492-3.221-2.748-7.87-2.551-11.82-3.635-.622-.113-1.389-.236-2.157-.307l-3.851-.862-.954-.246v.031l-13.79-2.679c-.219-.199-.457-.403-.678-.554l13.396 1.665v-.062a13.78 13.78 0 0 0 1.418.246v.031l9.475 1.753c1.635.611 3.378 1.064 5.014 1.172 2.699.393 6.136 4.423 7.013 4.62-.434-4.245-4.669-6.146-8.185-7.387-4.107-1.999-10.244-1.921-10.933-7.446-.173-.385-.344-.769-.554-1.143l-1.596-2.128.062-.031c-2.187-2.581-5.26-4.452-8.53-5.171-3.241-1.123-6.885-2.236-10.342-2.679-1.162 3.428-2.462-2.719-5.26-.892-2.453.291-2.118.939-3.94-.616zm17.631 10.047c.888-.023 1.901.14 2.925.492 2.719.94 4.491 2.925 3.969 4.432s-3.162 1.96-5.88 1.015-4.491-2.886-3.969-4.403c.326-.945 1.477-1.497 2.955-1.537z" fill="#f60"/></g></svg>