<?xml version="1.0" encoding="UTF-8" standalone="no"?>
<svg
   inkscape:version="1.3.2 (091e20ef0f, 2023-11-25, custom)"
   sodipodi:docname="qemu.svg"
   version="1.1"
   viewBox="0 0 112 112"
   id="svg5"
   width="112"
   height="112"
   xmlns:inkscape="http://www.inkscape.org/namespaces/inkscape"
   xmlns:sodipodi="http://sodipodi.sourceforge.net/DTD/sodipodi-0.dtd"
   xmlns="http://www.w3.org/2000/svg"
   xmlns:svg="http://www.w3.org/2000/svg"
   xmlns:rdf="http://www.w3.org/1999/02/22-rdf-syntax-ns#"
   xmlns:cc="http://creativecommons.org/ns#"
   xmlns:dc="http://purl.org/dc/elements/1.1/">
  <sodipodi:namedview
     id="namedview5"
     pagecolor="#ffffff"
     bordercolor="#000000"
     borderopacity="0.25"
     inkscape:showpageshadow="2"
     inkscape:pageopacity="0.0"
     inkscape:pagecheckerboard="0"
     inkscape:deskcolor="#d1d1d1"
     inkscape:zoom="2.2739911"
     inkscape:cx="98.285344"
     inkscape:cy="71.900017"
     inkscape:window-width="1920"
     inkscape:window-height="1061"
     inkscape:window-x="0"
     inkscape:window-y="19"
     inkscape:window-maximized="1"
     inkscape:current-layer="g5" />
  <title
     id="title1">Kew the Angry Emu</title>
  <defs
     id="defs4">
    <linearGradient
       id="cvfb"
       x1="143"
       x2="143"
       y1="832"
       y2="879"
       gradientUnits="userSpaceOnUse"
       inkscape:collect="always"
       gradientTransform="matrix(1.0342232,0,0,1.2706171,-29.352937,-1000.0467)">
      <stop
         style="stop-color:#fff"
         offset="0"
         id="stop1" />
      <stop
         style="stop-color:#fff;stop-opacity:0"
         offset="1"
         id="stop2" />
    </linearGradient>
    <radialGradient
       id="cvfa"
       cx="117"
       cy="98.300003"
       r="55.900002"
       gradientTransform="matrix(0.95936516,1.4873115,-0.82343868,0.53188623,80.176228,-126.3743)"
       gradientUnits="userSpaceOnUse"
       inkscape:collect="always">
      <stop
         offset="0"
         id="stop3" />
      <stop
         style="stop-opacity:.897"
         offset="1"
         id="stop4" />
    </radialGradient>
  </defs>
  <metadata
     id="metadata4">
    <rdf:RDF>
      <cc:Work
         rdf:about="">
        <dc:format>image/svg+xml</dc:format>
        <dc:type
           rdf:resource="http://purl.org/dc/dcmitype/StillImage" />
        <dc:title>Kew the Angry Emu</dc:title>
        <dc:creator>
          <cc:Agent>
            <dc:title>Benoît Canet</dc:title>
          </cc:Agent>
        </dc:creator>
        <dc:rights>
          <cc:Agent>
            <dc:title>CC BY 3.0</dc:title>
          </cc:Agent>
        </dc:rights>
        <dc:publisher>
          <cc:Agent>
            <dc:title>QEMU Community</dc:title>
          </cc:Agent>
        </dc:publisher>
        <dc:date>2012-02-15</dc:date>
        <cc:license
           rdf:resource="http://creativecommons.org/licenses/by/4.0/" />
        <dc:subject>
          <rdf:Bag>
            <rdf:li>QEMU logo</rdf:li>
            <rdf:li>QEMU mascot</rdf:li>
          </rdf:Bag>
        </dc:subject>
        <dc:source>http://lists.gnu.org/archive/html/qemu-devel/2012-02/msg01961.html</dc:source>
      </cc:Work>
      <cc:License
         rdf:about="http://creativecommons.org/licenses/by/3.0/">
        <cc:permits
           rdf:resource="http://creativecommons.org/ns#Reproduction" />
        <cc:permits
           rdf:resource="http://creativecommons.org/ns#Distribution" />
        <cc:requires
           rdf:resource="http://creativecommons.org/ns#Notice" />
        <cc:requires
           rdf:resource="http://creativecommons.org/ns#Attribution" />
        <cc:permits
           rdf:resource="http://creativecommons.org/ns#DerivativeWorks" />
      </cc:License>
    </rdf:RDF>
  </metadata>
  <g
     transform="translate(-62.3,-55.9)"
     inkscape:groupmode="layer"
     inkscape:label="Layer 1"
     id="g5">
    <path
       d="m 117.99925,56.732458 c -30.435713,0 -55.060076,24.525865 -55.060076,54.764582 0,30.23872 24.624363,54.76458 55.060076,54.76458 9.94824,0 19.207,-2.61018 27.28379,-7.20016 l 2.86628,7.20016 h 22.16192 l -8.67762,-21.47244 c 7.11152,-9.21936 11.32721,-20.78296 11.32721,-33.29214 0,-30.238717 -24.62437,-54.764582 -54.96158,-54.764582 z"
       style="fill:url(#cvfa);stroke-width:0.984975"
       inkscape:connector-curvature="0"
       id="path4" />
    <ellipse
       cx="117.50676"
       cy="87.601555"
       rx="36.611504"
       ry="31.257181"
       style="fill:url(#cvfb);stroke-width:1.14634"
       id="ellipse4" />
    <circle
       cx="123.58405"
       cy="78.500397"
       r="6.4712825"
       id="circle4"
       style="stroke-width:0.984975" />
    <rect
       transform="matrix(0.98972836,0.14296076,-0.18995973,0.98179188,0,0)"
       x="125.21562"
       y="65.735909"
       width="37.045204"
       height="5.4185081"
       id="rect4"
       style="stroke-width:0.985214" />
    <rect
       x="144.59357"
       y="89.335114"
       width="6.4712825"
       height="2.8564262"
       id="rect5"
       style="stroke-width:0.984975" />
    <path
       d="m 103.22463,65.695726 c -0.0561,2.157094 -3.81185,0.278747 -3.969446,2.738229 -4.156592,-1.851752 0.324057,2.826877 -0.09229,3.260265 h -0.03073 l -0.307312,-0.03073 c -0.200935,-0.07171 -0.492488,-0.19601 -0.923906,-0.461953 -2.905675,2.31469 -2.974623,7.121366 -5.968946,9.790647 -1.960099,4.24524 -2.442737,8.845071 -3.880799,13.297155 -0.707212,4.235391 -1.329716,8.470781 -0.276778,12.706171 0.316177,3.44741 -0.678648,8.13589 2.462436,10.53923 4.658929,3.8217 8.529879,8.66777 12.410671,13.29715 6.12655,7.53506 11.52421,15.6611 16.35058,24.03338 0.31913,-2.08815 1.09332,4.19599 2.49199,4.61953 -0.48461,-3.14207 -1.11302,-8.13589 -1.41837,-12.01669 -1.55626,-10.14524 -6.55008,-19.3055 -8.43138,-29.35224 -0.0578,-0.42354 -0.12607,-0.8589 -0.18517,-1.29031 v -1.26077 h -0.15366 c -0.61659,-4.96427 -0.83723,-10.34223 2.76778,-14.18364 3.6838,-3.713348 9.17011,-4.649074 13.59265,-7.229707 0.98497,-0.58212 2.01919,-1.053923 3.07312,-1.388814 0.009,-0.003 0.0224,0.003 0.0307,0 3.07312,-0.94853 6.35308,-0.918981 9.5444,-0.3999 0.0472,0.0079 0.10638,0.02295 0.15366,0.03073 0.29057,0.04856 0.60477,0.09751 0.89238,0.153656 2.33439,0.207829 7.03272,1.12287 7.8798,-0.492488 -3.22087,-2.748079 -7.86995,-2.551084 -11.81969,-3.634556 -0.62152,-0.113272 -1.38882,-0.236393 -2.1571,-0.307312 l -3.85125,-0.861852 -0.95444,-0.246244 v 0.03073 l -13.78964,-2.67913 c -0.21867,-0.198965 -0.45703,-0.402855 -0.67766,-0.553556 l 13.39565,1.664607 v -0.06156 c 0.47279,0.105392 0.94164,0.191085 1.41836,0.246244 v 0.03073 l 9.47546,1.753254 c 1.63506,0.610685 3.37846,1.063773 5.01352,1.17212 2.69883,0.393005 6.13639,4.422536 7.01302,4.61953 -0.43438,-4.24524 -4.66878,-6.14624 -8.18514,-7.387308 -4.10735,-1.999499 -10.24374,-1.920701 -10.93322,-7.446408 -0.17335,-0.385125 -0.34375,-0.769265 -0.55355,-1.14257 l -1.59566,-2.127545 0.0616,-0.03073 c -2.18665,-2.580633 -5.25977,-4.452085 -8.52988,-5.171116 -3.24057,-1.122871 -6.88497,-2.235892 -10.34223,-2.679131 -1.16227,3.427711 -2.46244,-2.718529 -5.25977,-0.892387 -2.45258,0.290568 -2.11769,0.938681 -3.9399,-0.615609 z m 17.63104,10.04674 c 0.88845,-0.02344 1.90101,0.139866 2.92538,0.492487 2.71853,0.939666 4.49148,2.925374 3.96945,4.432385 -0.52204,1.507011 -3.16177,1.960099 -5.8803,1.014524 -2.71853,-0.945576 -4.49149,-2.885975 -3.96945,-4.402836 0.32603,-0.944591 1.47746,-1.497161 2.95492,-1.53656 z"
       style="fill:#ff6600;stroke-width:0.984975"
       inkscape:connector-curvature="0"
       id="path5" />
  </g>
</svg>
