<svg xmlns="http://www.w3.org/2000/svg" width="256" height="249" preserveAspectRatio="xMidYMid" xmlns:v="https://vecta.io/nano"><path d="M142.077 191.087c0 31.806-25.782 57.592-57.588 57.592s-57.592-25.786-57.592-57.592 25.782-57.592 57.592-57.592 57.588 25.786 57.588 57.592" fill="#f60"/><path d="M255.98 110.459c0 31.802-25.782 57.592-57.588 57.592s-57.592-25.79-57.592-57.592 25.782-57.596 57.592-57.596 57.588 25.79 57.588 57.596" fill="#fc0"/><path d="M115.2 109.181c0 31.802-25.782 57.592-57.592 57.592-31.802 0-57.588-25.79-57.588-57.592s25.786-57.596 57.588-57.596c31.81 0 57.592 25.79 57.592 57.596" fill="#0089cc"/><path d="M230.386 191.087c0 31.806-25.782 57.592-57.596 57.592-31.802 0-57.588-25.786-57.588-57.592s25.786-57.592 57.588-57.592c31.815 0 57.596 25.786 57.596 57.592" fill="#009939"/><path d="M185.592 57.984c0 31.806-25.786 57.592-57.592 57.592S70.408 89.79 70.408 57.984 96.194.392 128 .392s57.592 25.786 57.592 57.592" fill="#bf0000"/><path d="M140.799 110.459c0 1.212.106 2.398.182 3.593 25.545-5.893 44.611-28.733 44.611-56.068 0-1.212-.106-2.402-.182-3.597-25.545 5.898-44.611 28.737-44.611 56.072" fill="#fc0007"/><path d="M148.397 138.976c9.925 17.351 28.577 29.075 49.997 29.075 8.73 0 16.975-2.001 24.393-5.48-9.921-17.351-28.572-29.075-49.997-29.075-8.73 0-16.975 2.001-24.393 5.48" fill="#1cd306"/><path d="M115.2 191.087c0 14.071 5.058 26.947 13.442 36.948 8.376-10.001 13.433-22.877 13.433-36.948s-5.058-26.947-13.433-36.948c-8.384 10.001-13.442 22.877-13.442 36.948" fill="#0f7504"/><path d="M34.807 162.057c6.995 3.023 14.696 4.716 22.801 4.716 21.21 0 39.688-11.496 49.685-28.564-6.995-3.023-14.7-4.711-22.801-4.711-21.21 0-39.692 11.496-49.685 28.56" fill="#0c5e87"/><path d="M70.655 53.126l-.249 4.859c0 27.314 19.036 50.132 44.551 56.051.131-1.604.245-3.217.245-4.855 0-27.314-19.031-50.141-44.547-56.056" fill="#6b0001"/><path d="M76.03 183.961h-9.009c-7.954 0-14.421-6.447-14.421-14.379V88.036c0-7.933 6.468-14.383 14.421-14.383h112.968c7.954 0 14.417 6.451 14.417 14.383v81.546c0 7.933-6.463 14.379-14.417 14.379h-38.485L64.29 221.812l11.741-37.852h0z" fill="#fff"/></svg>