<svg xmlns="http://www.w3.org/2000/svg" preserveAspectRatio="xMidYMid" width="470" height="470" xmlns:v="https://vecta.io/nano"><defs><linearGradient id="A" x1="137.554" y1="38.496" x2="354.867" y2="421.574" gradientUnits="userSpaceOnUse"><stop offset="0" stop-color="#539dff"/><stop offset="1" stop-color="#0050c7"/></linearGradient></defs><path d="M387.522 405.272a14.22 14.22 0 0 1-2.548 2.26c-40.181 34.974-92.646 56.179-149.974 56.179-57.338 0-109.812-21.213-149.997-56.198-.907-.637-1.761-1.374-2.531-2.247C35.74 363.361 6.288 302.56 6.288 235S35.74 106.639 82.476 64.728c.766-.869 1.622-1.609 2.531-2.245C125.191 27.499 177.664 6.288 235 6.288s109.814 21.215 149.999 56.2c.905.635 1.759 1.372 2.529 2.245C434.26 106.639 463.712 167.44 463.712 235s-29.452 128.361-76.19 170.272zm-223.17 16.961c-8.964-11.878-16.993-26.01-23.883-41.984-8.499 4.559-16.685 9.745-24.493 15.53 14.712 10.919 30.97 19.864 48.376 26.454zm-70.521-45.525c11.495-9.03 23.759-16.896 36.626-23.512-9.608-30.512-15.535-65.814-16.728-103.902H35.393c3.518 49.623 25.204 94.306 58.438 127.414zm-58.44-156.003h78.336c1.193-38.088 7.121-73.388 16.728-103.902-12.865-6.615-25.13-14.483-36.626-23.512-33.232 33.108-54.918 77.791-58.438 127.414zm80.583-146.484c7.809 5.785 15.995 10.972 24.493 15.53 6.892-15.974 14.922-30.106 23.883-41.984-17.407 6.591-33.665 15.535-48.376 26.454zm104.731-36.712c-17.754 6.48-34.961 24.737-48.727 52.268-1.875 3.749-3.642 7.658-5.352 11.643 17.312 6.295 35.498 10.187 54.079 11.516zm0 104.119c-21.943-1.37-43.431-5.886-63.849-13.307-8.417 27.754-13.385 59.263-14.502 92.384h78.351zm0 107.666h-78.349c1.115 33.121 6.086 64.628 14.502 92.384 20.416-7.422 41.904-11.937 63.847-13.307zm0 107.769c-18.581 1.328-36.767 5.22-54.079 11.514 1.71 3.987 3.476 7.896 5.352 11.645 13.765 27.531 30.973 45.788 48.727 52.268zm213.903-107.769h-78.336c-1.193 38.088-7.121 73.388-16.728 103.902 12.865 6.615 25.13 14.483 36.626 23.512 33.232-33.108 54.918-77.791 58.438-127.414zm-80.583 146.484c-7.809-5.785-15.995-10.972-24.493-15.53-6.892 15.974-14.922 30.106-23.883 41.984a199.95 199.95 0 0 0 48.376-26.454zm-104.731 36.714c17.754-6.48 34.961-24.737 48.727-52.268 1.875-3.749 3.642-7.658 5.352-11.645-17.312-6.295-35.498-10.187-54.079-11.516zm0-104.121c21.943 1.37 43.431 5.886 63.849 13.307 8.417-27.754 13.385-59.263 14.502-92.384h-78.351zm0-107.666h78.349c-1.115-33.121-6.086-64.628-14.502-92.384-20.416 7.422-41.904 11.937-63.847 13.307zm48.727-130.928c-13.765-27.531-30.973-45.788-48.727-52.268v75.427c18.581-1.328 36.767-5.22 54.079-11.514-1.71-3.987-3.476-7.896-5.352-11.645zm7.626-42.011c8.964 11.878 16.993 26.01 23.883 41.984 8.499-4.557 16.685-9.745 24.493-15.53-14.712-10.919-30.97-19.864-48.376-26.454zm70.522 45.525c-11.495 9.03-23.759 16.896-36.626 23.512 9.608 30.512 15.535 65.814 16.728 103.902h78.336c-3.518-49.623-25.204-94.306-58.438-127.414z" fill="url(#A)" fill-rule="evenodd"/></svg>