<svg xmlns="http://www.w3.org/2000/svg" width="200" height="155" xmlns:v="https://vecta.io/nano"><linearGradient id="A" y2="37.369" gradientUnits="userSpaceOnUse" x2="123.404" y1="164.219" x1="123.404"><stop stop-color="#1b3967" offset=".011"/><stop stop-color="#13b5ea" offset=".467"/><stop stop-color="#002b5c" offset=".995"/></linearGradient><linearGradient id="B" y2="37.368" gradientUnits="userSpaceOnUse" x2="78.412" y1="164.218" x1="78.412"><stop stop-color="#1b3967" offset=".011"/><stop stop-color="#13b5ea" offset=".467"/><stop stop-color="#002b5c" offset=".995"/></linearGradient><g transform="translate(0 -23.478)"><path d="M151.805 51.558c.077 1.313-1.787.968-1.787 2.293 0 38.551-46.558 97.366-91.688 108.73v1.639c59.953-5.52 128.56-67.8 130.07-126.85l-36.599 14.189z" fill="url(#A)"/><path d="M133.673 56.301l.12 3.957c0 38.551-30.699 90.497-75.827 101.86v1.639c59.044-2.79 105.81-63.024 105.81-109.2a67.92 67.92 0 0 0-.371-7.056l-29.73 8.798z" fill="#e96d1f"/><path d="M163.691 46.952l-7.617 2.722.066 3.225c0 41.219-37.271 98.204-87.272 107.12-3.245 1.088-7.538 2.077-10.932 2.931v1.638c65.254-5.56 111.1-71.866 105.76-117.64z" fill="#d9541e"/><path d="M50.011 51.557c-.077 1.313 1.787.968 1.787 2.293 0 38.551 46.558 97.366 91.688 108.73v1.639c-59.953-5.52-128.56-67.8-130.07-126.85l36.599 14.189z" fill="url(#B)"/><path d="M68.143 56.3l-.12 3.957c0 38.551 30.699 90.497 75.827 101.86v1.639c-59.044-2.79-105.81-63.024-105.81-109.2a67.92 67.92 0 0 1 .371-7.056l29.73 8.798z" fill="#a0ce67"/><path d="M38.125 46.951l7.617 2.722-.066 3.225c0 41.219 37.271 98.204 87.272 107.12 3.245 1.088 7.538 2.077 10.932 2.931v1.638c-65.254-5.56-111.1-71.866-105.76-117.64z" fill="#439639"/></g></svg>