<?xml version="1.0" encoding="UTF-8" standalone="no"?>
<svg
   width="256px"
   height="256px"
   viewBox="0 0 256 256"
   version="1.1"
   preserveAspectRatio="xMidYMid"
   id="svg2"
   sodipodi:docname="xmr.svg"
   inkscape:version="1.3.2 (091e20ef0f, 2023-11-25, custom)"
   xmlns:inkscape="http://www.inkscape.org/namespaces/inkscape"
   xmlns:sodipodi="http://sodipodi.sourceforge.net/DTD/sodipodi-0.dtd"
   xmlns="http://www.w3.org/2000/svg"
   xmlns:svg="http://www.w3.org/2000/svg">
  <defs
     id="defs2" />
  <sodipodi:namedview
     id="namedview2"
     pagecolor="#ffffff"
     bordercolor="#000000"
     borderopacity="0.25"
     inkscape:showpageshadow="2"
     inkscape:pageopacity="0.0"
     inkscape:pagecheckerboard="0"
     inkscape:deskcolor="#d1d1d1"
     showgrid="false"
     inkscape:zoom="2.3726747"
     inkscape:cx="126.01812"
     inkscape:cy="160.789"
     inkscape:window-width="1920"
     inkscape:window-height="1061"
     inkscape:window-x="0"
     inkscape:window-y="19"
     inkscape:window-maximized="1"
     inkscape:current-layer="svg2" />
  <circle
     style="fill:#ffffff;fill-opacity:1;stroke:none;stroke-width:0.177502"
     id="path3"
     cx="128"
     cy="128"
     r="126.19717" />
  <g
     id="g2">
    <path
       d="M127.9983,0.0005 C57.3183,0.0005 0.0003,57.3155 0.0003,127.9975 C0.0003,142.1255 2.2893,155.7145 6.5183,168.4275 L44.7993,168.4275 L44.7993,60.7335 L127.9983,143.9335 L211.1973,60.7335 L211.1973,168.4275 L249.4793,168.4275 C253.7103,155.7145 256.0003,142.1255 256.0003,127.9975 C256.0003,57.3155 198.6813,0.0005 127.9983,0.0005"
       fill="#FF6600"
       id="path1" />
    <path
       d="M108.8673,163.0617 L72.5573,126.7507 L72.5573,194.5157 L58.6773,194.5157 L44.7973,194.5157 L18.6233,194.5157 C41.0923,231.3787 81.6743,255.9967 127.9963,255.9967 C174.3183,255.9967 214.9033,231.3787 237.3703,194.5157 L211.1933,194.5157 L186.3673,194.5157 L183.4373,194.5157 L183.4373,126.7507 L147.1263,163.0617 L127.9963,182.1897 L108.8693,163.0617 L108.8673,163.0617 Z"
       fill="#4C4C4C"
       id="path2" />
  </g>
</svg>
