<svg xmlns="http://www.w3.org/2000/svg" width="256" height="256" preserveAspectRatio="xMidYMid" xmlns:v="https://vecta.io/nano"><circle cx="128" cy="128" r="126.197" fill="#fff"/><path d="M127.998.001C57.318.001 0 57.316 0 127.998c0 14.128 2.289 27.717 6.518 40.43h38.281V60.734l83.199 83.2 83.199-83.2v107.694h38.282c4.231-12.713 6.521-26.302 6.521-40.43C256 57.316 198.681.001 127.998.001" fill="#f60"/><path d="M108.867 163.062l-36.31-36.311v67.765h-13.88-13.88-26.174c22.469 36.863 63.051 61.481 109.373 61.481s86.907-24.618 109.374-61.481h-26.177-24.826-2.93v-67.765l-36.311 36.311-19.13 19.128-19.127-19.128h-.002z" fill="#4c4c4c"/></svg>